<?xml version="1.0" encoding="UTF-8"?>
<svg version="1.1" xmlns="http://www.w3.org/2000/svg" width="64" height="64">
<path d="M0 0 C9.24 0 18.48 0 28 0 C28 0.66 28 1.32 28 2 C29.65 2 31.3 2 33 2 C33 2.99 33 3.98 33 5 C33.99 5 34.98 5 36 5 C36 5.99 36 6.98 36 8 C36.66 8 37.32 8 38 8 C38 8.66 38 9.32 38 10 C38.99 10 39.98 10 41 10 C41 10.99 41 11.98 41 13 C41.99 13 42.98 13 44 13 C44 14.65 44 16.3 44 18 C44.66 18 45.32 18 46 18 C46 27.24 46 36.48 46 46 C45.34 46 44.68 46 44 46 C44 47.65 44 49.3 44 51 C43.01 51 42.02 51 41 51 C41 51.99 41 52.98 41 54 C40.01 54 39.02 54 38 54 C38 54.66 38 55.32 38 56 C37.34 56 36.68 56 36 56 C36 56.99 36 57.98 36 59 C35.01 59 34.02 59 33 59 C33 59.99 33 60.98 33 62 C31.35 62 29.7 62 28 62 C28 62.66 28 63.32 28 64 C18.76 64 9.52 64 0 64 C0 63.34 0 62.68 0 62 C-1.65 62 -3.3 62 -5 62 C-5 61.01 -5 60.02 -5 59 C-5.99 59 -6.98 59 -8 59 C-8 58.01 -8 57.02 -8 56 C-8.66 56 -9.32 56 -10 56 C-10 55.34 -10 54.68 -10 54 C-10.99 54 -11.98 54 -13 54 C-13 53.01 -13 52.02 -13 51 C-13.99 51 -14.98 51 -16 51 C-16 49.35 -16 47.7 -16 46 C-16.66 46 -17.32 46 -18 46 C-18 36.76 -18 27.52 -18 18 C-17.34 18 -16.68 18 -16 18 C-16 16.35 -16 14.7 -16 13 C-15.01 13 -14.02 13 -13 13 C-13 12.01 -13 11.02 -13 10 C-12.01 10 -11.02 10 -10 10 C-10 9.34 -10 8.68 -10 8 C-9.34 8 -8.68 8 -8 8 C-8 7.01 -8 6.02 -8 5 C-7.01 5 -6.02 5 -5 5 C-5 4.01 -5 3.02 -5 2 C-3.35 2 -1.7 2 0 2 C0 1.34 0 0.68 0 0 Z M4 8 C4 8.99 4 9.98 4 11 C2.02 11 0.04 11 -2 11 C-2 11.99 -2 12.98 -2 14 C-2.66 14 -3.32 14 -4 14 C-4 14.66 -4 15.32 -4 16 C-4.99 16 -5.98 16 -7 16 C-7 17.98 -7 19.96 -7 22 C-7.99 22 -8.98 22 -10 22 C-10 28.6 -10 35.2 -10 42 C-9.01 42 -8.02 42 -7 42 C-7 43.98 -7 45.96 -7 48 C-6.01 48 -5.02 48 -4 48 C-4 48.66 -4 49.32 -4 50 C-3.34 50 -2.68 50 -2 50 C-2 50.99 -2 51.98 -2 53 C-0.02 53 1.96 53 4 53 C4 53.99 4 54.98 4 56 C10.6 56 17.2 56 24 56 C24 55.01 24 54.02 24 53 C25.98 53 27.96 53 30 53 C30 52.01 30 51.02 30 50 C30.66 50 31.32 50 32 50 C32 49.34 32 48.68 32 48 C32.99 48 33.98 48 35 48 C35 46.02 35 44.04 35 42 C35.99 42 36.98 42 38 42 C38 35.4 38 28.8 38 22 C37.01 22 36.02 22 35 22 C35 20.02 35 18.04 35 16 C34.01 16 33.02 16 32 16 C32 15.34 32 14.68 32 14 C31.34 14 30.68 14 30 14 C30 13.01 30 12.02 30 11 C28.02 11 26.04 11 24 11 C24 10.01 24 9.02 24 8 C17.4 8 10.8 8 4 8 Z " fill="#FFFFFF" transform="translate(18,0)"/>
<path d="M0 0 C7.26 0 14.52 0 22 0 C22 0.99 22 1.98 22 3 C22.99 3 23.98 3 25 3 C25 4.98 25 6.96 25 9 C24.01 9 23.02 9 22 9 C22 9.66 22 10.32 22 11 C21.01 11 20.02 11 19 11 C19 10.34 19 9.68 19 9 C13.72 9 8.44 9 3 9 C3 9.66 3 10.32 3 11 C2.34 11 1.68 11 1 11 C1 16.28 1 21.56 1 27 C1.66 27 2.32 27 3 27 C3 27.66 3 28.32 3 29 C8.28 29 13.56 29 19 29 C19 28.34 19 27.68 19 27 C19.99 27 20.98 27 22 27 C22 27.66 22 28.32 22 29 C22.99 29 23.98 29 25 29 C25 30.98 25 32.96 25 35 C24.01 35 23.02 35 22 35 C22 35.99 22 36.98 22 38 C14.74 38 7.48 38 0 38 C0 37.01 0 36.02 0 35 C-0.99 35 -1.98 35 -3 35 C-3 34.34 -3 33.68 -3 33 C-3.66 33 -4.32 33 -5 33 C-5 32.01 -5 31.02 -5 30 C-5.99 30 -6.98 30 -8 30 C-8 22.74 -8 15.48 -8 8 C-7.01 8 -6.02 8 -5 8 C-5 7.01 -5 6.02 -5 5 C-4.34 5 -3.68 5 -3 5 C-3 4.34 -3 3.68 -3 3 C-2.01 3 -1.02 3 0 3 C0 2.01 0 1.02 0 0 Z " fill="#FFFFFF" transform="translate(21,13)"/>
</svg>
