<?xml version="1.0" encoding="UTF-8"?>
<svg version="1.1" xmlns="http://www.w3.org/2000/svg" width="121" height="121">
<path d="M0 0 C0.92115097 -0.0071553 1.84230194 -0.01431061 2.79136658 -0.02168274 C3.81006836 -0.02437164 4.82877014 -0.02706055 5.87834167 -0.02983093 C6.94495529 -0.03640213 8.01156891 -0.04297333 9.11050415 -0.04974365 C12.65705933 -0.06953175 16.20357208 -0.0811512 19.75016785 -0.09111023 C20.95784002 -0.09518576 22.1655122 -0.09926128 23.4097805 -0.10346031 C29.80099188 -0.1243441 36.19218164 -0.13863608 42.5834198 -0.147995 C49.19818674 -0.15906718 55.81261799 -0.19347023 62.42726612 -0.23316669 C67.50153241 -0.25926361 72.57571789 -0.26768066 77.65004539 -0.27127647 C80.08896338 -0.27615998 82.52787734 -0.28782366 84.96673012 -0.30631447 C88.37634284 -0.3305592 91.78507612 -0.32976745 95.19474792 -0.32279968 C96.20737701 -0.33560974 97.2200061 -0.3484198 98.26332092 -0.36161804 C104.96069815 -0.31159132 104.96069815 -0.31159132 108.35578918 1.71134949 C110.21162008 4.99933098 110.29849215 7.91122738 110.26408386 11.59028625 C110.27700722 12.70565262 110.27700722 12.70565262 110.29019165 13.84355164 C110.31286731 16.29797828 110.30611009 18.75126452 110.29704285 21.20576477 C110.30227806 22.91443216 110.30855417 24.62309666 110.31582642 26.33175659 C110.32623376 29.91204938 110.32166502 33.49194482 110.30705261 37.07221985 C110.28987095 41.6569788 110.3133497 46.24048381 110.34854221 50.82510281 C110.37052048 54.3536609 110.36907367 57.8819192 110.3607769 61.41052437 C110.35995747 63.10059547 110.36681931 64.7906886 110.38154793 66.48069572 C110.39900138 68.84613069 110.38444786 71.20931614 110.36174011 73.57466125 C110.37927841 74.61828072 110.37927841 74.61828072 110.39717102 75.6829834 C110.32910119 79.17407475 109.74154046 81.13019288 107.84707642 84.08001709 C103.33674811 87.07174593 99.54252258 86.84820365 94.23649597 86.79414368 C93.18065811 86.80290527 92.12482025 86.81166687 91.0369873 86.82069397 C87.54903495 86.8426894 84.0623517 86.82813351 80.5743866 86.81123352 C78.1497015 86.81460158 75.72501806 86.81945411 73.30033875 86.82572937 C68.2194867 86.83310095 63.13907425 86.82238525 58.05827332 86.79902649 C51.54440572 86.77053945 45.03156814 86.78694176 38.51773834 86.81688881 C33.51113621 86.83495353 28.50477842 86.82920734 23.49816895 86.81624985 C21.09638345 86.8129136 18.69457579 86.81701054 16.29281616 86.82864761 C12.93620515 86.84134185 9.58126381 86.82199661 6.22477722 86.79414368 C5.23137833 86.80426483 4.23797943 86.81438599 3.21447754 86.82481384 C-1.5149352 86.75208122 -3.5667311 86.71001025 -7.36274719 83.66923523 C-7.99193054 82.83695404 -8.62111389 82.00467285 -9.2693634 81.14717102 C-9.5993634 80.81717102 -9.9293634 80.48717102 -10.2693634 80.14717102 C-10.3901807 77.873755 -10.43966695 75.59653481 -10.4622345 73.32002258 C-10.47041199 72.6061438 -10.47858948 71.89226501 -10.48701477 71.15675354 C-10.51191615 68.78377634 -10.52839868 66.41085923 -10.5428009 64.03779602 C-10.54812458 63.22854424 -10.55344826 62.41929245 -10.55893326 61.58551788 C-10.58568826 57.30041449 -10.60505365 53.01534044 -10.61946106 48.73017883 C-10.63609502 44.30351686 -10.68085471 39.87760145 -10.7318325 35.45122147 C-10.76549741 32.04883473 -10.77703775 28.64662507 -10.78268814 25.24408722 C-10.78940518 23.61258504 -10.80463917 21.98109469 -10.82857895 20.34975433 C-10.86021332 18.06318569 -10.86027088 15.77862776 -10.8528595 13.49189758 C-10.86094635 12.19141479 -10.8690332 10.89093201 -10.87736511 9.55104065 C-10.11794902 5.29948457 -8.53435866 3.86596897 -5.2693634 1.14717102 C-3.70460468 -0.41758771 -2.17584211 0.01154996 0 0 Z M5.7306366 9.14717102 C7.3806366 10.79717102 9.0306366 12.44717102 10.7306366 14.14717102 C11.76805245 15.25228447 12.79789956 16.36460238 13.8165741 17.48701477 C14.35540222 18.0754718 14.89423035 18.66392883 15.4493866 19.2702179 C16.5480594 20.47383468 17.64444098 21.67954716 18.7384491 22.8874054 C22.03152456 26.47450546 25.45513813 29.69223107 29.19059753 32.81391907 C31.05220738 34.42556323 32.61503509 36.17657489 34.1681366 38.08467102 C37.15193778 41.60730764 40.37437591 44.57361221 43.9337616 47.50654602 C45.82518 49.23349326 47.25863727 51.05729543 48.7306366 53.14717102 C52.46099581 52.58221684 54.10351505 51.09891095 56.6681366 48.39717102 C57.31653503 47.72170227 57.96493347 47.04623352 58.63298035 46.35029602 C59.32520691 45.62326477 60.01743347 44.89623352 60.7306366 44.14717102 C62.39330807 42.47651872 64.06014878 40.81000775 65.7306366 39.14717102 C66.5556366 38.32217102 67.3806366 37.49717102 68.2306366 36.64717102 C90.7306366 14.14717102 90.7306366 14.14717102 93.03923035 11.90107727 C94.8463308 10.43330252 94.8463308 10.43330252 94.7306366 9.14717102 C65.3606366 9.14717102 35.9906366 9.14717102 5.7306366 9.14717102 Z M-1.2693634 16.14717102 C-1.2693634 33.96717102 -1.2693634 51.78717102 -1.2693634 70.14717102 C4.82491525 64.92350361 10.50175102 59.55947713 16.1681366 53.89717102 C17.09046082 52.9870929 18.01278503 52.07701477 18.96305847 51.13935852 C19.83382019 50.2705304 20.70458191 49.40170227 21.60173035 48.50654602 C22.39506775 47.7173175 23.18840515 46.92808899 24.00578308 46.11494446 C25.95035823 44.33262578 25.95035823 44.33262578 25.7306366 42.14717102 C24.11089101 40.43486854 22.434742 38.7755384 20.7306366 37.14717102 C10.7306366 27.14717102 10.7306366 27.14717102 8.3556366 24.70967102 C5.28285813 21.71005394 1.99099355 18.9417627 -1.2693634 16.14717102 Z M99.23039246 18.53388977 C98.13285335 19.63158815 97.03808443 20.73206042 95.94548035 21.83467102 C95.36979813 22.41176819 94.79411591 22.98886536 94.20098877 23.58345032 C92.35435625 25.43570131 90.51122207 27.29139113 88.6681366 29.14717102 C87.42031782 30.40000242 86.17227392 31.65260963 84.92399597 32.90498352 C81.85692003 35.98311297 78.79297822 39.0643318 75.7306366 42.14717102 C77.33463286 46.13970765 80.13240928 48.8216731 83.14079285 51.78779602 C83.66829636 52.31484131 84.19579987 52.8418866 84.73928833 53.38490295 C85.85065582 54.49325828 86.96444386 55.59919113 88.08049011 56.70283508 C89.79587443 58.39987959 91.50303831 60.1048743 93.20915222 61.81123352 C94.2900601 62.88722905 95.37142442 63.96276629 96.45329285 65.03779602 C97.22359581 65.80642975 97.22359581 65.80642975 98.00946045 66.59059143 C100.02918679 69.05769293 100.02918679 69.05769293 102.7306366 70.14717102 C102.7306366 52.32717102 102.7306366 34.50717102 102.7306366 16.14717102 C101.27510344 16.03208865 101.27510344 16.03208865 99.23039246 18.53388977 Z M31.7306366 50.14717102 C30.56868337 51.54834991 29.41137809 52.95363684 28.2775116 54.37763977 C26.59964974 56.29701204 24.80410629 57.87956576 22.8556366 59.52217102 C19.33086134 62.51690488 16.38594756 65.75640057 13.40641785 69.28388977 C11.06878483 71.88307613 8.44992109 73.95847863 5.7306366 76.14717102 C5.7306366 76.47717102 5.7306366 76.80717102 5.7306366 77.14717102 C35.1006366 77.14717102 64.4706366 77.14717102 94.7306366 77.14717102 C92.33038357 73.1467493 91.32952688 71.53387659 87.9806366 68.83467102 C85.12733261 66.43435507 82.63432526 63.99741652 80.2306366 61.14717102 C76.75509593 57.03752479 72.86326383 53.58208197 68.7306366 50.14717102 C68.05967957 50.72724915 68.05967957 50.72724915 67.37516785 51.31904602 C66.11764543 52.40228495 64.85428699 53.47877458 63.58610535 54.54951477 C62.13095889 55.80247246 60.7314393 57.12007365 59.3556366 58.45967102 C55.55272794 60.90439802 52.23210462 61.57101054 47.7306366 61.14717102 C41.47491257 58.93329466 37.68965014 55.30588564 33.7306366 50.14717102 C33.0706366 50.14717102 32.4106366 50.14717102 31.7306366 50.14717102 Z " fill="#B9B9B9" transform="translate(11.269363403320313,18.852828979492188)"/>
</svg>
