<svg width="120" height="120" version="1.1" xmlns="http://www.w3.org/2000/svg" desc="Created with imagetracer.js version 1.2.6" ><path fill="rgb(254,254,254)" stroke="rgb(254,254,254)" stroke-width="1" opacity="0.996078431372549" d="M 105.5 18 Q 116.6 16.4 119 23.5 L 120 25.5 L 120 93.5 L 114.5 101 Q 111.3 103.3 104.5 102 L 105 100.5 L 110 89 L 113 89 L 113 82.5 L 118 68.5 L 118 55.5 L 116 51.5 L 116 44.5 L 113 30.5 L 110 27.5 L 105.5 18 Z " /><path fill="rgb(255,255,255)" stroke="rgb(255,255,255)" stroke-width="1" opacity="1" d="M 7.5 18 L 104.5 18 L 107 20.5 L 112 30.5 L 83 60.5 L 111 88.5 L 110 89.5 Q 108.3 97.3 103.5 102 L 7.5 102 L 1 96.5 L 0 94.5 L 0 25.5 L 5.5 19 L 7.5 18 Z M 14 25 L 59 71 L 62 71 L 107 26 L 14 25 Z M 8 30 L 7 89 L 9 89 L 37 61 L 8 30 Z M 43 65 L 13 95 L 107 95 L 78 65 L 64 78 L 55 77 L 43 65 Z " /><path fill="rgb(255,255,255)" stroke="rgb(255,255,255)" stroke-width="1" opacity="1" d="M 113.5 35 L 116 44.5 L 116 51.5 L 118 55.5 L 118 68.5 L 113.5 82 L 113.5 35 Z " /><path fill="rgb(124,124,124)" stroke="rgb(124,124,124)" stroke-width="1" opacity="0.00784313725490196" d="M 107.5 36 L 106.5 38 L 107.5 36 Z " /><path fill="rgb(124,124,124)" stroke="rgb(124,124,124)" stroke-width="1" opacity="0.00784313725490196" d="M 23.5 47 L 24.5 49 L 23.5 47 Z " /><path fill="rgb(124,124,124)" stroke="rgb(124,124,124)" stroke-width="1" opacity="0.00784313725490196" d="M 83.5 47 L 82.5 49 L 83.5 47 Z " /><path fill="rgb(124,124,124)" stroke="rgb(124,124,124)" stroke-width="1" opacity="0.00784313725490196" d="M 90.5 53 L 87.5 57 L 90.5 53 Z " /><path fill="rgb(124,124,124)" stroke="rgb(124,124,124)" stroke-width="1" opacity="0.00784313725490196" d="M 51.5 62 L 52.5 64 L 51.5 62 Z " /><path fill="rgb(124,124,124)" stroke="rgb(124,124,124)" stroke-width="1" opacity="0.00784313725490196" d="M 68.5 62 L 62.5 69 L 68.5 62 Z " /><path fill="rgb(124,124,124)" stroke="rgb(124,124,124)" stroke-width="1" opacity="0.00784313725490196" d="M 41.5 67 L 40.5 69 L 41.5 67 Z " /><path fill="rgb(124,124,124)" stroke="rgb(124,124,124)" stroke-width="1" opacity="0.00784313725490196" d="M 105.5 81 L 108.5 85 L 105.5 81 Z " /><path fill="rgb(124,124,124)" stroke="rgb(124,124,124)" stroke-width="1" opacity="0.00784313725490196" d="M 12.5 83 L 10.5 86 L 12.5 83 Z " /><path fill="rgb(0,0,0)" stroke="rgb(0,0,0)" stroke-width="1" opacity="0" d="M 0 0 L 119.5 0 L 120 0.5 L 120 22.5 L 119 22.5 L 117.5 19 L 113.5 17 L 6.5 17 L 1 20.5 L 0.5 22 L 0 0 Z " /><path fill="rgb(0,0,0)" stroke="rgb(0,0,0)" stroke-width="1" opacity="0" d="M 15.5 26 L 105 26.5 L 90 40.5 L 86.5 45 L 75 55.5 L 71.5 60 L 59.5 70 L 44 55.5 L 34.5 45 L 29 40.5 L 19.5 30 L 15.5 26 Z " /><path fill="rgb(0,0,0)" stroke="rgb(0,0,0)" stroke-width="1" opacity="0" d="M 8.5 32 L 35 60.5 L 25 70.5 L 25 72 L 23 72 Q 24.1 74.7 21.5 74 L 8.5 88 L 8.5 32 Z " /><path fill="rgb(0,0,0)" stroke="rgb(0,0,0)" stroke-width="1" opacity="0" d="M 111.5 33 L 112 87.5 L 111 87.5 L 105.5 81 Q 103.3 81.8 104 79.5 L 85 60.5 L 85 59 Q 87.7 60.1 87 57.5 L 100.5 44 L 102 44 L 102 42.5 L 111.5 33 Z " /><path fill="rgb(0,0,0)" stroke="rgb(0,0,0)" stroke-width="1" opacity="0" d="M 42.5 67 L 46.5 72 L 54.5 78 L 62.5 79 L 72 74 L 77.5 67 L 90 78.5 L 99.5 89 L 105 93.5 L 15.5 94 L 19.5 89 L 29 80.5 L 34.5 74 L 42.5 67 Z " /><path fill="rgb(0,0,0)" stroke="rgb(0,0,0)" stroke-width="1" opacity="0" d="M 119.5 97 L 120 120 L 0.5 120 L 0 119.5 L 0 98.5 L 1 98.5 L 2.5 101 L 5.5 103 L 114.5 103 L 119 100 L 119.5 97 Z " /><path fill="rgb(184,184,184)" stroke="rgb(184,184,184)" stroke-width="1" opacity="0.23529411764705882" d="M 8.5 17 L 112 17.5 L 8.5 18 L 8.5 17 Z " /><path fill="rgb(184,184,184)" stroke="rgb(184,184,184)" stroke-width="1" opacity="0.23529411764705882" d="M 113.5 18 L 119 22.5 L 114.5 19 L 113.5 18 Z " /><path fill="rgb(184,184,184)" stroke="rgb(184,184,184)" stroke-width="1" opacity="0.23529411764705882" d="M 4.5 19 L 1.5 23 L 4.5 19 Z " /><path fill="rgb(184,184,184)" stroke="rgb(184,184,184)" stroke-width="1" opacity="0.23529411764705882" d="M 7.5 30 L 37 60.5 L 8.5 89 L 7 89 L 7.5 30 Z M 9 32 L 8 88 L 36 61 L 9 32 Z " /><path fill="rgb(184,184,184)" stroke="rgb(184,184,184)" stroke-width="1" opacity="0.23529411764705882" d="M 101.5 30 L 92.5 40 L 101.5 30 Z " /><path fill="rgb(184,184,184)" stroke="rgb(184,184,184)" stroke-width="1" opacity="0.23529411764705882" d="M 112.5 30 L 113 89 L 111.5 89 L 83 60.5 L 112.5 30 Z M 112 32 L 84 61 L 112 88 L 112 32 Z " /><path fill="rgb(184,184,184)" stroke="rgb(184,184,184)" stroke-width="1" opacity="0.23529411764705882" d="M 20.5 32 L 26.5 39 L 20.5 32 Z " /><path fill="rgb(184,184,184)" stroke="rgb(184,184,184)" stroke-width="1" opacity="0.23529411764705882" d="M 82.5 49 L 77.5 55 L 82.5 49 Z " /><path fill="rgb(184,184,184)" stroke="rgb(184,184,184)" stroke-width="1" opacity="0.23529411764705882" d="M 67.5 64 L 65.5 67 L 67.5 64 Z " /><path fill="rgb(184,184,184)" stroke="rgb(184,184,184)" stroke-width="1" opacity="0.23529411764705882" d="M 42.5 65 L 53.5 77 L 42.5 65 Z " /><path fill="rgb(184,184,184)" stroke="rgb(184,184,184)" stroke-width="1" opacity="0.23529411764705882" d="M 77.5 65 L 66.5 77 L 77.5 65 Z " /><path fill="rgb(184,184,184)" stroke="rgb(184,184,184)" stroke-width="1" opacity="0.23529411764705882" d="M 63.5 68 L 61.5 71 L 58 70.5 Q 62.3 70.8 63.5 68 Z " /><path fill="rgb(184,184,184)" stroke="rgb(184,184,184)" stroke-width="1" opacity="0.23529411764705882" d="M 24.5 83 L 21.5 87 L 24.5 83 Z " /><path fill="rgb(184,184,184)" stroke="rgb(184,184,184)" stroke-width="1" opacity="0.23529411764705882" d="M 96.5 84 L 98.5 87 L 96.5 84 Z " /><path fill="rgb(184,184,184)" stroke="rgb(184,184,184)" stroke-width="1" opacity="0.23529411764705882" d="M 105.5 93 L 106.5 95 L 13 94.5 L 104.5 94 L 105.5 93 Z " /><path fill="rgb(184,184,184)" stroke="rgb(184,184,184)" stroke-width="1" opacity="0.23529411764705882" d="M 1.5 97 L 7 101.5 L 5.5 102 L 1.5 97 Z " /><path fill="rgb(184,184,184)" stroke="rgb(184,184,184)" stroke-width="1" opacity="0.23529411764705882" d="M 118.5 97 L 115.5 101 L 118.5 97 Z " /><path fill="rgb(182,182,182)" stroke="rgb(182,182,182)" stroke-width="1" opacity="0.08627450980392157" d="M 6.5 17 L 8 17.5 L 1 22.5 L 0.5 24 L 0 22.5 L 6.5 17 Z " /><path fill="rgb(182,182,182)" stroke="rgb(182,182,182)" stroke-width="1" opacity="0.08627450980392157" d="M 115.5 18 L 118.5 22 L 115.5 18 Z " /><path fill="rgb(182,182,182)" stroke="rgb(182,182,182)" stroke-width="1" opacity="0.08627450980392157" d="M 14 25 L 105.5 25 L 106 26.5 L 102 29.5 L 104.5 26 L 15 26.5 L 19.5 32 L 14 25 Z " /><path fill="rgb(182,182,182)" stroke="rgb(182,182,182)" stroke-width="1" opacity="0.08627450980392157" d="M 21.5 32 L 24.5 36 L 21.5 32 Z " /><path fill="rgb(182,182,182)" stroke="rgb(182,182,182)" stroke-width="1" opacity="0.08627450980392157" d="M 98.5 32 L 97.5 34 L 98.5 32 Z " /><path fill="rgb(182,182,182)" stroke="rgb(182,182,182)" stroke-width="1" opacity="0.08627450980392157" d="M 95.5 35 L 94.5 37 L 95.5 35 Z " /><path fill="rgb(182,182,182)" stroke="rgb(182,182,182)" stroke-width="1" opacity="0.08627450980392157" d="M 15.5 39 L 17.5 42 L 15.5 39 Z " /><path fill="rgb(182,182,182)" stroke="rgb(182,182,182)" stroke-width="1" opacity="0.08627450980392157" d="M 91.5 40 L 83.5 49 L 91.5 40 Z " /><path fill="rgb(182,182,182)" stroke="rgb(182,182,182)" stroke-width="1" opacity="0.08627450980392157" d="M 29.5 41 L 34.5 47 L 29.5 41 Z " /><path fill="rgb(182,182,182)" stroke="rgb(182,182,182)" stroke-width="1" opacity="0.08627450980392157" d="M 101.5 42 L 100.5 44 L 101.5 42 Z " /><path fill="rgb(182,182,182)" stroke="rgb(182,182,182)" stroke-width="1" opacity="0.08627450980392157" d="M 40.5 51 L 50 61.5 L 40 52.5 L 40.5 51 Z " /><path fill="rgb(182,182,182)" stroke="rgb(182,182,182)" stroke-width="1" opacity="0.08627450980392157" d="M 92.5 51 L 91.5 53 L 92.5 51 Z " /><path fill="rgb(182,182,182)" stroke="rgb(182,182,182)" stroke-width="1" opacity="0.08627450980392157" d="M 30.5 54 L 32.5 57 L 30.5 54 Z " /><path fill="rgb(182,182,182)" stroke="rgb(182,182,182)" stroke-width="1" opacity="0.08627450980392157" d="M 76.5 55 L 68.5 64 L 76.5 55 Z " /><path fill="rgb(182,182,182)" stroke="rgb(182,182,182)" stroke-width="1" opacity="0.08627450980392157" d="M 86.5 57 L 85 59.5 L 89 64.5 L 84 60.5 L 86.5 57 Z " /><path fill="rgb(182,182,182)" stroke="rgb(182,182,182)" stroke-width="1" opacity="0.08627450980392157" d="M 35.5 60 L 30.5 66 L 35.5 60 Z " /><path fill="rgb(182,182,182)" stroke="rgb(182,182,182)" stroke-width="1" opacity="0.08627450980392157" d="M 41.5 66 L 43 66.5 L 40 68.5 L 40 70 L 38 70 Q 39.1 72.7 36.5 72 L 27 81.5 L 27 83 L 25 82.5 L 41.5 66 Z " /><path fill="rgb(182,182,182)" stroke="rgb(182,182,182)" stroke-width="1" opacity="0.08627450980392157" d="M 90.5 66 L 92.5 69 L 90.5 66 Z " /><path fill="rgb(182,182,182)" stroke="rgb(182,182,182)" stroke-width="1" opacity="0.08627450980392157" d="M 55.5 67 L 57.5 70 L 55.5 67 Z " /><path fill="rgb(182,182,182)" stroke="rgb(182,182,182)" stroke-width="1" opacity="0.08627450980392157" d="M 75.5 68 L 73.5 71 L 75.5 68 Z " /><path fill="rgb(182,182,182)" stroke="rgb(182,182,182)" stroke-width="1" opacity="0.08627450980392157" d="M 45.5 69 L 49.5 74 L 45.5 69 Z " /><path fill="rgb(182,182,182)" stroke="rgb(182,182,182)" stroke-width="1" opacity="0.08627450980392157" d="M 81.5 70 Q 83.8 69.3 83 71.5 L 81.5 70 Z " /><path fill="rgb(182,182,182)" stroke="rgb(182,182,182)" stroke-width="1" opacity="0.08627450980392157" d="M 71.5 72 L 69.5 75 L 71.5 72 Z " /><path fill="rgb(182,182,182)" stroke="rgb(182,182,182)" stroke-width="1" opacity="0.08627450980392157" d="M 84.5 72 L 89.5 78 L 84.5 72 Z " /><path fill="rgb(182,182,182)" stroke="rgb(182,182,182)" stroke-width="1" opacity="0.08627450980392157" d="M 20.5 75 L 15.5 81 L 20.5 75 Z " /><path fill="rgb(182,182,182)" stroke="rgb(182,182,182)" stroke-width="1" opacity="0.08627450980392157" d="M 101.5 77 L 103.5 80 L 101.5 77 Z " /><path fill="rgb(182,182,182)" stroke="rgb(182,182,182)" stroke-width="1" opacity="0.08627450980392157" d="M 94.5 83 Q 96.8 82.3 96 84.5 L 97.5 87 L 94.5 83 Z " /><path fill="rgb(182,182,182)" stroke="rgb(182,182,182)" stroke-width="1" opacity="0.08627450980392157" d="M 20.5 87 L 14.5 94 L 20.5 87 Z " /><path fill="rgb(182,182,182)" stroke="rgb(182,182,182)" stroke-width="1" opacity="0.08627450980392157" d="M 99.5 87 L 104.5 93 L 99.5 87 Z " /><path fill="rgb(182,182,182)" stroke="rgb(182,182,182)" stroke-width="1" opacity="0.08627450980392157" d="M 0.5 96 L 5 101.5 L 0 97.5 L 0.5 96 Z " /><path fill="rgb(182,182,182)" stroke="rgb(182,182,182)" stroke-width="1" opacity="0.08627450980392157" d="M 118.5 98 L 115.5 102 L 113.5 103 L 6.5 103 L 6.5 102 L 113.5 102 L 118.5 98 Z " /><path fill="rgb(255,255,255)" stroke="rgb(255,255,255)" stroke-width="1" opacity="0.00392156862745098" d="M 117.5 19 L 118.5 21 L 117.5 19 Z " /><path fill="rgb(255,255,255)" stroke="rgb(255,255,255)" stroke-width="1" opacity="0.00392156862745098" d="M 19.5 30 L 20.5 32 L 19.5 30 Z " /><path fill="rgb(255,255,255)" stroke="rgb(255,255,255)" stroke-width="1" opacity="0.00392156862745098" d="M 100.5 30 L 99.5 32 L 100.5 30 Z " /><path fill="rgb(255,255,255)" stroke="rgb(255,255,255)" stroke-width="1" opacity="0.00392156862745098" d="M 111.5 32 L 110.5 34 L 111.5 32 Z " /><path fill="rgb(255,255,255)" stroke="rgb(255,255,255)" stroke-width="1" opacity="0.00392156862745098" d="M 12.5 36 L 14.5 39 L 12.5 36 Z " /><path fill="rgb(255,255,255)" stroke="rgb(255,255,255)" stroke-width="1" opacity="0.00392156862745098" d="M 25.5 36 L 28.5 40 L 25.5 36 Z " /><path fill="rgb(255,255,255)" stroke="rgb(255,255,255)" stroke-width="1" opacity="0.00392156862745098" d="M 105.5 38 L 102.5 42 L 105.5 38 Z " /><path fill="rgb(255,255,255)" stroke="rgb(255,255,255)" stroke-width="1" opacity="0.00392156862745098" d="M 91.5 39 L 90.5 41 L 91.5 39 Z " /><path fill="rgb(255,255,255)" stroke="rgb(255,255,255)" stroke-width="1" opacity="0.00392156862745098" d="M 20.5 44 L 22.5 47 L 20.5 44 Z " /><path fill="rgb(255,255,255)" stroke="rgb(255,255,255)" stroke-width="1" opacity="0.00392156862745098" d="M 99.5 44 L 93.5 51 L 99.5 44 Z " /><path fill="rgb(255,255,255)" stroke="rgb(255,255,255)" stroke-width="1" opacity="0.00392156862745098" d="M 34.5 45 L 39.5 51 L 34.5 45 Z " /><path fill="rgb(255,255,255)" stroke="rgb(255,255,255)" stroke-width="1" opacity="0.00392156862745098" d="M 25.5 49 L 29.5 54 L 25.5 49 Z " /><path fill="rgb(255,255,255)" stroke="rgb(255,255,255)" stroke-width="1" opacity="0.00392156862745098" d="M 42.5 53 L 43.5 55 L 42.5 53 Z " /><path fill="rgb(255,255,255)" stroke="rgb(255,255,255)" stroke-width="1" opacity="0.00392156862745098" d="M 76.5 54 L 75.5 56 L 76.5 54 Z " /><path fill="rgb(255,255,255)" stroke="rgb(255,255,255)" stroke-width="1" opacity="0.00392156862745098" d="M 49.5 60 L 50.5 62 L 49.5 60 Z " /><path fill="rgb(255,255,255)" stroke="rgb(255,255,255)" stroke-width="1" opacity="0.00392156862745098" d="M 70.5 60 L 69.5 62 L 70.5 60 Z " /><path fill="rgb(255,255,255)" stroke="rgb(255,255,255)" stroke-width="1" opacity="0.00392156862745098" d="M 29.5 66 L 26.5 70 L 29.5 66 Z " /><path fill="rgb(255,255,255)" stroke="rgb(255,255,255)" stroke-width="1" opacity="0.00392156862745098" d="M 55.5 66 L 58.5 70 L 55.5 66 Z " /><path fill="rgb(255,255,255)" stroke="rgb(255,255,255)" stroke-width="1" opacity="0.00392156862745098" d="M 78.5 67 L 80.5 70 L 78.5 67 Z " /><path fill="rgb(255,255,255)" stroke="rgb(255,255,255)" stroke-width="1" opacity="0.00392156862745098" d="M 93.5 69 L 98.5 75 L 93.5 69 Z " /><path fill="rgb(255,255,255)" stroke="rgb(255,255,255)" stroke-width="1" opacity="0.00392156862745098" d="M 45.5 70 L 46.5 72 L 45.5 70 Z " /><path fill="rgb(255,255,255)" stroke="rgb(255,255,255)" stroke-width="1" opacity="0.00392156862745098" d="M 36.5 72 L 35.5 74 L 36.5 72 Z " /><path fill="rgb(255,255,255)" stroke="rgb(255,255,255)" stroke-width="1" opacity="0.00392156862745098" d="M 83.5 72 L 84.5 74 L 83.5 72 Z " /><path fill="rgb(255,255,255)" stroke="rgb(255,255,255)" stroke-width="1" opacity="0.00392156862745098" d="M 90.5 79 L 93.5 83 L 90.5 79 Z " /><path fill="rgb(255,255,255)" stroke="rgb(255,255,255)" stroke-width="1" opacity="0.00392156862745098" d="M 28.5 80 L 27.5 82 L 28.5 80 Z " /><path fill="rgb(255,255,255)" stroke="rgb(255,255,255)" stroke-width="1" opacity="0.00392156862745098" d="M 14.5 81 L 13.5 83 L 14.5 81 Z " /><path fill="rgb(255,255,255)" stroke="rgb(255,255,255)" stroke-width="1" opacity="0.00392156862745098" d="M 25.5 83 L 20.5 89 L 25.5 83 Z " /><path fill="rgb(255,255,255)" stroke="rgb(255,255,255)" stroke-width="1" opacity="0.00392156862745098" d="M 109.5 85 L 110.5 87 L 109.5 85 Z " /><path fill="rgb(255,255,255)" stroke="rgb(255,255,255)" stroke-width="1" opacity="0.00392156862745098" d="M 98.5 87 L 99.5 89 L 98.5 87 Z " /><path fill="rgb(255,255,255)" stroke="rgb(255,255,255)" stroke-width="1" opacity="0.00392156862745098" d="M 1.5 99 L 2.5 101 L 1.5 99 Z " /></svg>