<svg width="120" height="120" version="1.1" xmlns="http://www.w3.org/2000/svg" desc="Created with imagetracer.js version 1.2.6" ><path fill="rgb(255,255,255)" stroke="rgb(255,255,255)" stroke-width="1" opacity="1" d="M 55.5 0 L 64.5 0 L 75.5 3 Q 85.2 7.3 91 15.5 L 98 30.5 L 98 47.5 L 93 59.5 L 82 75.5 L 81 80 Q 92.6 80.7 101.5 85 L 110 91.5 L 113 99.5 L 109 108 L 100.5 113 L 84.5 118 L 71.5 119 L 70.5 120 L 49.5 120 L 24.5 115 L 15.5 111 L 10 106.5 Q 7 103.5 7 97.5 L 12.5 89 Q 22.7 81 39 80 L 38 75.5 L 23 51.5 L 21 37.5 L 23 26.5 L 27 18.5 L 37.5 7 L 44.5 3 L 55.5 0 Z M 56 7 L 51 8 L 39 15 L 30 28 L 28 38 Q 28 48 32 55 L 59 96 Q 58 98 61 97 L 89 53 L 92 41 Q 92 28 86 21 Q 80 12 70 8 L 56 7 Z M 40 86 L 25 90 L 18 94 L 14 99 L 15 102 L 18 104 L 32 110 L 42 112 L 49 112 L 50 113 L 72 113 L 73 112 L 85 111 L 103 104 L 106 99 L 105 97 L 96 90 Q 87 86 75 86 L 65 104 L 60 108 L 57 107 L 45 88 Q 46 85 40 86 Z " /><path fill="rgb(255,255,255)" stroke="rgb(255,255,255)" stroke-width="1" opacity="1" d="M 58.5 21 Q 70.3 21.7 75 29.5 Q 78.8 34.2 77 44.5 L 70.5 53 Q 66 57.5 55.5 56 Q 48.8 53.8 45 48.5 L 42 38.5 L 45 29.5 L 50.5 24 L 58.5 21 Z M 60 28 L 56 29 L 50 35 Q 49 41 51 45 L 57 49 L 66 48 Q 72 45 70 35 Q 68 28 60 28 Z " /><path fill="rgb(241,241,241)" stroke="rgb(241,241,241)" stroke-width="1" opacity="0.00784313725490196" d="M 84.5 7 L 85.5 9 L 84.5 7 Z " /><path fill="rgb(241,241,241)" stroke="rgb(241,241,241)" stroke-width="1" opacity="0.00784313725490196" d="M 37.5 60 L 38.5 62 L 37.5 60 Z " /><path fill="rgb(241,241,241)" stroke="rgb(241,241,241)" stroke-width="1" opacity="0.00784313725490196" d="M 82.5 60 L 81.5 62 L 82.5 60 Z " /><path fill="rgb(241,241,241)" stroke="rgb(241,241,241)" stroke-width="1" opacity="0.00784313725490196" d="M 16.5 101 L 17.5 103 L 16.5 101 Z " /><path fill="rgb(0,0,0)" stroke="rgb(0,0,0)" stroke-width="1" opacity="0" d="M 0 0 L 48 0.5 Q 36.6 4.1 30 12.5 Q 19.9 22.4 20 42.5 L 25 59 Q 27.7 57.9 27 60.5 L 34 74 Q 36.7 72.9 36 75.5 L 38 79 L 33.5 79 L 20.5 83 L 9 90 L 6 96.5 L 6 100.5 L 12.5 110 Q 19.3 115.7 29.5 118 L 44 119.5 L 0 120 L 0 0 Z " /><path fill="rgb(0,0,0)" stroke="rgb(0,0,0)" stroke-width="1" opacity="0" d="M 71.5 0 L 120 0 L 120 120 L 75 119.5 Q 99.6 119.6 111 106.5 Q 114.7 103.7 114 96.5 L 111 90 L 99.5 83 L 86.5 79 L 82 79 L 84 74 Q 86.7 75.1 86 72.5 L 93 59 Q 95.7 60.1 95 57.5 L 98 51.5 L 100 42.5 L 100 40.5 L 97 23.5 Q 92.3 13.7 84.5 7 L 76.5 2 L 71.5 1 L 71.5 0 Z " /><path fill="rgb(0,0,0)" stroke="rgb(0,0,0)" stroke-width="1" opacity="0" d="M 56.5 8 Q 75.9 8.1 84 19.5 L 90 30.5 L 90 47.5 L 85 57.5 L 76 69.5 L 75 73.5 L 59.5 95 L 59 92 Q 56.3 93.1 57 90.5 L 32 52.5 L 29 44.5 L 29 33.5 Q 32.8 21.3 41.5 14 L 56.5 8 Z M 59 20 L 50 23 L 45 28 Q 46 31 43 30 L 42 34 L 42 44 L 45 51 Q 49 57 58 58 Q 67 58 72 54 L 78 44 L 78 34 L 77 33 Q 78 29 75 30 L 74 27 L 67 21 L 59 20 Z " /><path fill="rgb(0,0,0)" stroke="rgb(0,0,0)" stroke-width="1" opacity="0" d="M 57.5 29 L 62.5 29 L 68 33.5 L 70 39.5 L 68 45 L 62.5 48 L 57.5 48 L 52 45 L 50 38.5 Q 51.3 32.8 55.5 30 L 57.5 29 Z " /><path fill="rgb(0,0,0)" stroke="rgb(0,0,0)" stroke-width="1" opacity="0" d="M 42.5 87 L 45 88.5 L 47 93.5 L 57.5 108 Q 62.8 109.3 64 106.5 L 76.5 87 L 95.5 91 L 104 96 L 105 99.5 L 99.5 105 L 96.5 105 L 87.5 109 L 70.5 112 L 49.5 112 L 26.5 107 L 19.5 104 L 15 99.5 L 16 96 L 29.5 89 L 35.5 89 L 42.5 87 Z " /><path fill="rgb(182,182,182)" stroke="rgb(182,182,182)" stroke-width="1" opacity="0.21568627450980393" d="M 48.5 0 L 55 0.5 Q 37.1 3.1 29 15.5 L 23.5 26 L 23 23.5 L 34.5 8 L 48.5 0 Z " /><path fill="rgb(182,182,182)" stroke="rgb(182,182,182)" stroke-width="1" opacity="0.21568627450980393" d="M 65.5 0 L 76.5 2 L 89 11.5 L 97 23.5 L 100 40.5 L 98 51.5 L 93.5 59 L 94 57.5 L 98 47.5 L 98 30.5 Q 93.8 15.2 82.5 7 Q 76.3 1.7 65.5 1 L 65.5 0 Z " /><path fill="rgb(182,182,182)" stroke="rgb(182,182,182)" stroke-width="1" opacity="0.21568627450980393" d="M 55.5 7 L 69.5 8 Q 80.2 11.8 86 20.5 L 89 26.5 L 88 26.5 Q 84.8 18.8 78.5 14 L 71.5 10 L 63.5 8 L 55.5 8 L 42.5 13 L 36 19.5 Q 36.8 21.8 34.5 21 L 37 17.5 L 38.5 15 L 50.5 8 L 55.5 7 Z " /><path fill="rgb(182,182,182)" stroke="rgb(182,182,182)" stroke-width="1" opacity="0.21568627450980393" d="M 58.5 20 L 66.5 21 L 74 26.5 L 75 28.5 L 69.5 24 Q 65.5 21 58.5 21 Q 49.6 22.6 45.5 29 L 45 27.5 L 49.5 23 L 58.5 20 Z " /><path fill="rgb(182,182,182)" stroke="rgb(182,182,182)" stroke-width="1" opacity="0.21568627450980393" d="M 33.5 22 L 34 23.5 L 30.5 29 L 30 27.5 L 33.5 22 Z " /><path fill="rgb(182,182,182)" stroke="rgb(182,182,182)" stroke-width="1" opacity="0.21568627450980393" d="M 22.5 27 L 23 29.5 L 21 40.5 L 23 51.5 L 27 58.5 L 24 56.5 Q 20 48.5 20 36.5 L 22.5 27 Z " /><path fill="rgb(182,182,182)" stroke="rgb(182,182,182)" stroke-width="1" opacity="0.21568627450980393" d="M 55.5 29 L 57 29.5 L 52 33.5 L 50.5 38 L 50 34.5 L 55.5 29 Z " /><path fill="rgb(182,182,182)" stroke="rgb(182,182,182)" stroke-width="1" opacity="0.21568627450980393" d="M 63.5 29 L 70 34.5 L 69.5 38 L 65.5 31 L 63.5 29 Z " /><path fill="rgb(182,182,182)" stroke="rgb(182,182,182)" stroke-width="1" opacity="0.21568627450980393" d="M 44.5 30 L 44 31.5 L 43.5 33 L 43 31.5 L 44.5 30 Z " /><path fill="rgb(182,182,182)" stroke="rgb(182,182,182)" stroke-width="1" opacity="0.21568627450980393" d="M 75.5 30 L 77 32.5 L 76 32.5 L 75.5 30 Z " /><path fill="rgb(182,182,182)" stroke="rgb(182,182,182)" stroke-width="1" opacity="0.21568627450980393" d="M 90.5 31 L 92 40.5 L 90.5 47 L 90.5 31 Z " /><path fill="rgb(182,182,182)" stroke="rgb(182,182,182)" stroke-width="1" opacity="0.21568627450980393" d="M 42.5 34 L 43 37.5 L 42 37.5 L 42.5 34 Z " /><path fill="rgb(182,182,182)" stroke="rgb(182,182,182)" stroke-width="1" opacity="0.21568627450980393" d="M 77.5 34 L 78 43.5 L 77 43.5 L 77.5 34 Z " /><path fill="rgb(182,182,182)" stroke="rgb(182,182,182)" stroke-width="1" opacity="0.21568627450980393" d="M 28.5 37 L 29 41.5 L 28 41.5 L 28.5 37 Z " /><path fill="rgb(182,182,182)" stroke="rgb(182,182,182)" stroke-width="1" opacity="0.21568627450980393" d="M 42.5 40 L 43 43.5 L 42 43.5 L 42.5 40 Z " /><path fill="rgb(182,182,182)" stroke="rgb(182,182,182)" stroke-width="1" opacity="0.21568627450980393" d="M 50.5 40 L 52 45 L 57.5 48 L 62.5 48 L 68 45 L 69.5 40 L 70 42.5 L 65.5 48 L 56.5 49 L 51 44.5 L 50.5 40 Z " /><path fill="rgb(182,182,182)" stroke="rgb(182,182,182)" stroke-width="1" opacity="0.21568627450980393" d="M 43.5 45 L 45 47.5 L 43 46.5 L 43.5 45 Z " /><path fill="rgb(182,182,182)" stroke="rgb(182,182,182)" stroke-width="1" opacity="0.21568627450980393" d="M 76.5 45 L 77 46.5 L 75 47.5 L 76.5 45 Z " /><path fill="rgb(182,182,182)" stroke="rgb(182,182,182)" stroke-width="1" opacity="0.21568627450980393" d="M 30.5 48 L 32 52.5 L 45 72.5 L 43 71.5 L 32 54.5 L 30.5 48 Z " /><path fill="rgb(182,182,182)" stroke="rgb(182,182,182)" stroke-width="1" opacity="0.21568627450980393" d="M 89.5 48 L 90 49.5 L 87.5 54 L 88 52.5 L 89.5 48 Z " /><path fill="rgb(182,182,182)" stroke="rgb(182,182,182)" stroke-width="1" opacity="0.21568627450980393" d="M 45.5 49 Q 50 57.5 64.5 56 L 74.5 49 L 74 50.5 L 71.5 54 L 66.5 57 L 58.5 58 L 49.5 55 L 45 50.5 L 45.5 49 Z " /><path fill="rgb(182,182,182)" stroke="rgb(182,182,182)" stroke-width="1" opacity="0.21568627450980393" d="M 86.5 55 L 85.5 57 L 86.5 55 Z " /><path fill="rgb(182,182,182)" stroke="rgb(182,182,182)" stroke-width="1" opacity="0.21568627450980393" d="M 84.5 58 L 84 59.5 L 75.5 73 L 75 71.5 L 84.5 58 Z " /><path fill="rgb(182,182,182)" stroke="rgb(182,182,182)" stroke-width="1" opacity="0.21568627450980393" d="M 27.5 60 L 28.5 62 L 27.5 60 Z " /><path fill="rgb(182,182,182)" stroke="rgb(182,182,182)" stroke-width="1" opacity="0.21568627450980393" d="M 92.5 60 L 91.5 62 L 92.5 60 Z " /><path fill="rgb(182,182,182)" stroke="rgb(182,182,182)" stroke-width="1" opacity="0.21568627450980393" d="M 29.5 63 L 38 75.5 L 39 80 L 29.5 81 L 18.5 85 L 10 91.5 L 7 99.5 Q 7.9 106.1 12.5 109 Q 23.5 116.5 40 118.5 L 34.5 119 L 18.5 114 L 9 106.5 Q 6 103.5 6 97.5 L 7 93.5 L 12.5 88 Q 22.1 80 38 79 L 31 68.5 L 29.5 63 Z " /><path fill="rgb(182,182,182)" stroke="rgb(182,182,182)" stroke-width="1" opacity="0.21568627450980393" d="M 90.5 63 L 90 64.5 L 82 79 Q 93.4 79.3 101 84.5 L 99.5 85 L 93.5 82 L 81 80 L 82 75.5 L 90.5 63 Z " /><path fill="rgb(182,182,182)" stroke="rgb(182,182,182)" stroke-width="1" opacity="0.21568627450980393" d="M 45.5 74 L 59 95 Q 61.7 96.1 61 93.5 L 74.5 74 L 74 75.5 L 61 97 Q 58.3 98.1 59 95.5 L 45.5 74 Z " /><path fill="rgb(182,182,182)" stroke="rgb(182,182,182)" stroke-width="1" opacity="0.21568627450980393" d="M 102.5 85 L 113 93.5 L 114 100.5 L 107.5 110 L 104 111 Q 105.1 113.7 102.5 113 L 86.5 119 L 79.5 119 L 79.5 118 Q 98.2 116.5 109 108 L 112 103.5 L 113 97.5 L 107.5 89 Q 102.9 87.8 102.5 85 Z " /><path fill="rgb(182,182,182)" stroke="rgb(182,182,182)" stroke-width="1" opacity="0.21568627450980393" d="M 39.5 86 Q 45.6 84.8 45 87.5 L 57 105.5 L 53 102.5 L 43.5 87 L 30.5 89 L 30.5 88 L 39.5 86 Z " /><path fill="rgb(182,182,182)" stroke="rgb(182,182,182)" stroke-width="1" opacity="0.21568627450980393" d="M 75 86 Q 85.4 85.9 93 89.5 L 90.5 90 L 76.5 87 L 63 108 L 60 107.5 L 65 103.5 L 75 86 Z " /><path fill="rgb(182,182,182)" stroke="rgb(182,182,182)" stroke-width="1" opacity="0.21568627450980393" d="M 27.5 89 L 29 89.5 L 16 96.5 L 15 99.5 L 17.5 103 L 25.5 107 L 41.5 111 L 70.5 112 L 87.5 109 L 98.5 105 L 98.5 106 L 88.5 110 L 78.5 112 Q 73 110.5 71.5 113 L 49.5 113 L 48.5 112 L 41.5 112 L 31.5 110 L 17.5 104 L 15 101.5 L 14 98.5 L 17.5 94 L 27.5 89 Z " /><path fill="rgb(182,182,182)" stroke="rgb(182,182,182)" stroke-width="1" opacity="0.21568627450980393" d="M 94.5 90 L 105 96.5 L 106 98.5 L 104 97.5 Q 104.8 95.3 102.5 96 L 94.5 91 L 94.5 90 Z " /><path fill="rgb(182,182,182)" stroke="rgb(182,182,182)" stroke-width="1" opacity="0.21568627450980393" d="M 104.5 100 L 105 101.5 L 100.5 105 L 104.5 100 Z " /><path fill="rgb(182,182,182)" stroke="rgb(182,182,182)" stroke-width="1" opacity="0.21568627450980393" d="M 44.5 119 L 49 119.5 L 44.5 120 L 44.5 119 Z " /><path fill="rgb(182,182,182)" stroke="rgb(182,182,182)" stroke-width="1" opacity="0.21568627450980393" d="M 71.5 119 L 75 119.5 L 71.5 120 L 71.5 119 Z " /></svg>