<?xml version="1.0" encoding="UTF-8"?>
<svg version="1.1" xmlns="http://www.w3.org/2000/svg" width="121" height="121">
<path d="M0 0 C0.97646484 -0.01095703 1.95292969 -0.02191406 2.95898438 -0.03320312 C9.63406022 0.03377088 14.58788306 1.38356004 20.4375 4.5625 C21.448125 5.09875 22.45875 5.635 23.5 6.1875 C32.21357415 13.2325174 38.30457593 22.8092395 40.18359375 33.86328125 C41.05369889 43.11316819 39.0230619 51.09056769 35.4375 59.5625 C34.7775 59.5625 34.1175 59.5625 33.4375 59.5625 C33.20289062 60.22636719 32.96828125 60.89023437 32.7265625 61.57421875 C31.07936027 65.39273301 28.98132187 68.83372053 26.8125 72.375 C26.39226562 73.06787109 25.97203125 73.76074219 25.5390625 74.47460938 C24.5085533 76.17260748 23.47348319 77.86783614 22.4375 79.5625 C23.71625 79.645 24.995 79.7275 26.3125 79.8125 C35.38310622 80.84873514 44.18967364 85.07544502 51.4375 90.5625 C54.25238168 94.53645061 55.14246204 97.72847459 54.4375 102.5625 C50.43520263 110.91512061 41.96049597 114.64792666 33.69921875 117.80078125 C29.77262244 119.12321006 26.34455455 119.69951233 22.18847656 119.77124023 C21.1392804 119.79053085 20.09008423 119.80982147 19.00909424 119.82969666 C14.17813915 119.88798558 9.347328 119.9368027 4.51611328 119.9675293 C1.98504904 119.98899541 -0.54594331 120.02296006 -3.07666016 120.07006836 C-34.97255503 120.65763532 -34.97255503 120.65763532 -48.4375 110 C-51.61760164 106.7847979 -53.48417243 104.29837002 -53.6171875 99.65234375 C-53.40480971 95.86493991 -52.84858186 93.93527333 -50.5 90.875 C-43.79878417 85.59957477 -37.79446815 82.76215938 -29.515625 80.45703125 C-26.99785038 79.69437201 -24.85772538 78.82710233 -22.5625 77.5625 C-22.8925 76.5725 -23.2225 75.5825 -23.5625 74.5625 C-24.2225 74.5625 -24.8825 74.5625 -25.5625 74.5625 C-27.2890625 72.296875 -27.2890625 72.296875 -29.1875 69.3125 C-29.81914062 68.33796875 -30.45078125 67.3634375 -31.1015625 66.359375 C-32.5625 63.5625 -32.5625 63.5625 -32.5625 59.5625 C-33.2225 59.5625 -33.8825 59.5625 -34.5625 59.5625 C-35.21293719 57.83505984 -35.85764844 56.1054631 -36.5 54.375 C-36.85964844 53.41207031 -37.21929687 52.44914062 -37.58984375 51.45703125 C-41.16661397 40.81290784 -39.46093635 29.54657409 -34.5625 19.5625 C-26.80751952 6.65247469 -15.03829955 -0.36873233 0 0 Z M-23.6875 20.25 C-29.39637743 28.40768537 -31.88418623 35.48801416 -30.5625 45.5625 C-28.8992852 51.42112743 -25.56642099 56.23185378 -22.125 61.1875 C-20.47161815 63.70064041 -19.08077407 66.27210612 -17.6875 68.9375 C-15.03528508 73.91561021 -11.90895749 78.32799713 -8.53125 82.8359375 C-5.58906533 86.91062977 -3.05833174 91.20424836 -0.5625 95.5625 C6.49846314 88.84477813 11.40237969 80.66149331 15.953125 72.10546875 C17.57798239 69.32183148 19.36892864 66.69926749 21.19824219 64.04736328 C28.09031421 54.0200645 31.84697825 46.08763625 30.4375 33.5625 C28.73705027 25.97120655 25.55637019 19.50466439 19.4375 14.5625 C4.81103255 6.25483223 -12.36360595 6.0600087 -23.6875 20.25 Z M-43.5625 96.5625 C-44.36841408 98.65829141 -44.36841408 98.65829141 -44.5625 100.5625 C-32.52985575 112.26993765 -12.66176132 113.03824613 3.26269531 112.91577148 C16.21123621 112.60031192 29.89266421 110.8322339 41.4375 104.5625 C43.35319359 102.67942671 43.35319359 102.67942671 44.4375 100.5625 C43.83436452 97.11601157 42.66160081 95.76301125 40.0625 93.4375 C33.19529925 89.28015053 24.29920576 88.31843325 16.4375 87.5625 C13.10793852 92.03362542 10.25655182 96.52180815 7.6484375 101.44921875 C7.24882813 102.14660156 6.84921875 102.84398438 6.4375 103.5625 C6.01726562 104.31144531 5.59703125 105.06039062 5.1640625 105.83203125 C3.4375 107.5625 3.4375 107.5625 0.57421875 108.26171875 C-3.48511239 107.35683672 -4.3261152 105.87139004 -6.49804688 102.47460938 C-6.91119141 101.78173828 -7.32433594 101.08886719 -7.75 100.375 C-8.17474609 99.70146484 -8.59949219 99.02792969 -9.03710938 98.33398438 C-10.84346563 95.45448956 -12.56044822 92.5663005 -14.17578125 89.57421875 C-14.63339844 88.91035156 -15.09101562 88.24648437 -15.5625 87.5625 C-25.1604884 87.5625 -36.2933227 89.95562552 -43.5625 96.5625 Z " fill="#B9B9B9" transform="translate(61.5625,1.4375)"/>
<path d="M0 0 C4.43190259 4.6030533 7.46330654 9.19485737 7.6875 15.6875 C7.2262571 22.22792436 4.83489091 25.82710287 0.625 30.8125 C-3.78058738 34.48382282 -7.37872838 35.21210774 -13 34.875 C-19.63980243 34.00893881 -23.71769552 30.90492904 -27.9284668 25.74584961 C-29.78741259 22.71706826 -29.82823864 19.56872261 -29.75 16.125 C-29.7396875 15.41899658 -29.729375 14.71299316 -29.71875 13.9855957 C-29.43163666 8.43495142 -28.14609814 5.13146064 -24.05078125 1.421875 C-16.85094289 -3.57001293 -7.75963052 -4.91234674 0 0 Z M-19 10 C-20.83608786 14.1311977 -21.35137897 16.0198376 -19.8125 20.3125 C-18.11352333 23.19852657 -18.11352333 23.19852657 -15 25 C-11.30390789 25.34223075 -8.67009417 25.25314669 -5.1875 23.9375 C-2.09076732 21.19467963 -1.5512185 19.06523642 -1 15 C-2.42550981 10.88186054 -4.07217921 8.02002212 -8 6 C-13.04653535 5.24838835 -15.55094157 6.26352003 -19 10 Z " fill="#BABABA" transform="translate(73,25)"/>
</svg>
