<?xml version="1.0" encoding="UTF-8"?>
<!DOCTYPE svg PUBLIC "-//W3C//DTD SVG 1.1//EN" "http://www.w3.org/Graphics/SVG/1.1/DTD/svg11.dtd">
<svg xmlns="http://www.w3.org/2000/svg" version="1.1" width="120px" height="120px" style="shape-rendering:geometricPrecision; text-rendering:geometricPrecision; image-rendering:optimizeQuality; fill-rule:evenodd; clip-rule:evenodd" xmlns:xlink="http://www.w3.org/1999/xlink">
<g><path style="opacity:0.997" fill="#f6f6f6" d="M 27.5,-0.5 C 29.8333,-0.5 32.1667,-0.5 34.5,-0.5C 37.701,5.78597 40.701,12.1193 43.5,18.5C 47.0119,25.5372 50.0119,32.8705 52.5,40.5C 52.1667,41.5 51.8333,42.5 51.5,43.5C 45.8333,46 40.1667,48.5 34.5,51C 34.2155,52.9562 34.2155,55.1229 34.5,57.5C 35.3546,63.5467 38.0213,68.5467 42.5,72.5C 43.8333,73.8333 45.1667,75.1667 46.5,76.5C 49.5499,80.3617 53.5499,82.695 58.5,83.5C 61.4284,83.8516 64.2617,84.5183 67,85.5C 69.6881,79.2889 72.5215,73.1222 75.5,67C 77.5,66.3333 79.5,66.3333 81.5,67C 87.1926,69.5146 92.8593,72.0146 98.5,74.5C 104.864,77.7366 111.53,80.4033 118.5,82.5C 118.833,82.5 119.167,82.5 119.5,82.5C 119.5,86.5 119.5,90.5 119.5,94.5C 115.459,107.207 107.126,115.541 94.5,119.5C 87.1667,119.5 79.8333,119.5 72.5,119.5C 72.1583,118.662 71.4916,118.328 70.5,118.5C 61.6459,116.325 52.9792,113.325 44.5,109.5C 39.6102,107.289 34.9435,104.622 30.5,101.5C 25.515,96.0147 20.3484,90.6813 15,85.5C 13.1557,81.8113 11.3223,78.1447 9.5,74.5C 4.72472,64.1801 1.39138,53.5134 -0.5,42.5C -0.5,35.5 -0.5,28.5 -0.5,21.5C 2.6936,14.3024 7.6936,8.63573 14.5,4.5C 18.8415,2.61252 23.1749,0.94585 27.5,-0.5 Z M 38.5,27.5 C 39.6311,30.8891 40.9645,34.2225 42.5,37.5C 37.0733,40.4199 31.4066,42.7532 25.5,44.5C 24.7663,53.5625 26.2663,62.2291 30,70.5C 31.0491,72.6175 32.5491,74.2842 34.5,75.5C 36.5,79.5 39.5,82.5 43.5,84.5C 45.7996,87.3239 48.7996,89.1572 52.5,90C 59.44,93.3403 66.6067,94.1736 74,92.5C 76.4107,87.0893 78.9107,81.756 81.5,76.5C 84.7775,78.0355 88.1109,79.3689 91.5,80.5C 97.8636,83.7366 104.53,86.4033 111.5,88.5C 110.12,92.9298 108.453,97.2632 106.5,101.5C 104.833,103.167 103.167,104.833 101.5,106.5C 92.0502,111.624 82.0502,112.79 71.5,110C 65.0492,108.46 58.7159,106.626 52.5,104.5C 44.1488,99.3248 36.1488,93.6582 28.5,87.5C 26.2624,82.9289 23.2624,78.9289 19.5,75.5C 17.5,71.8333 15.5,68.1667 13.5,64.5C 10.3141,54.9206 8.31405,45.0873 7.5,35C 7.66667,32.8333 7.83333,30.6667 8,28.5C 9.84577,24.1453 11.6791,19.8119 13.5,15.5C 14.5,15.1667 15.1667,14.5 15.5,13.5C 20.0526,11.6408 24.5526,9.64082 29,7.5C 32.455,14.0748 35.6217,20.7415 38.5,27.5 Z"/></g>
<g><path style="opacity:0.197" fill="#bcbcbc" d="M 21.5,-0.5 C 23.5,-0.5 25.5,-0.5 27.5,-0.5C 23.1749,0.94585 18.8415,2.61252 14.5,4.5C 16.34,2.08551 18.6733,0.41884 21.5,-0.5 Z"/></g>
<g><path style="opacity:0.106" fill="#bebebe" d="M 38.5,27.5 C 35.6217,20.7415 32.455,14.0748 29,7.5C 24.5526,9.64082 20.0526,11.6408 15.5,13.5C 19.5896,9.30114 24.5896,7.13447 30.5,7C 34.0542,13.4974 36.7208,20.3307 38.5,27.5 Z"/></g>
<g><path style="opacity:0.277" fill="#b4b4b4" d="M 34.5,-0.5 C 35.1667,-0.5 35.8333,-0.5 36.5,-0.5C 39.6818,5.52856 42.0152,11.8619 43.5,18.5C 40.701,12.1193 37.701,5.78597 34.5,-0.5 Z"/></g>
<g><path style="opacity:0.251" fill="#b9b9b9" d="M 13.5,15.5 C 11.6791,19.8119 9.84577,24.1453 8,28.5C 7.83333,30.6667 7.66667,32.8333 7.5,35C 8.31405,45.0873 10.3141,54.9206 13.5,64.5C 6.52148,50.8019 5.02148,36.4686 9,21.5C 10.2775,19.2528 11.7775,17.2528 13.5,15.5 Z"/></g>
<g><path style="opacity:0.275" fill="#b6b6b6" d="M -0.5,42.5 C 1.39138,53.5134 4.72472,64.1801 9.5,74.5C 7.8639,73.2511 6.69724,71.5844 6,69.5C 3.70139,63.4288 1.53473,57.4288 -0.5,51.5C -0.5,48.5 -0.5,45.5 -0.5,42.5 Z"/></g>
<g><path style="opacity:0.329" fill="#b6b6b6" d="M 34.5,57.5 C 36.8937,62.6194 39.5604,67.6194 42.5,72.5C 38.0213,68.5467 35.3546,63.5467 34.5,57.5 Z"/></g>
<g><path style="opacity:0.3" fill="#b9b9b9" d="M 98.5,74.5 C 105.629,76.2053 112.296,78.872 118.5,82.5C 111.53,80.4033 104.864,77.7366 98.5,74.5 Z"/></g>
<g><path style="opacity:0.282" fill="#b3b3b3" d="M 34.5,75.5 C 37.8333,78.1667 40.8333,81.1667 43.5,84.5C 39.5,82.5 36.5,79.5 34.5,75.5 Z"/></g>
<g><path style="opacity:0.275" fill="#bbbbbb" d="M 19.5,75.5 C 23.2624,78.9289 26.2624,82.9289 28.5,87.5C 24.7376,84.0711 21.7376,80.0711 19.5,75.5 Z"/></g>
<g><path style="opacity:0.335" fill="#bababa" d="M 46.5,76.5 C 50.5079,78.8367 54.5079,81.17 58.5,83.5C 53.5499,82.695 49.5499,80.3617 46.5,76.5 Z"/></g>
<g><path style="opacity:0.188" fill="#bdbdbd" d="M 91.5,80.5 C 98.6293,82.2053 105.296,84.872 111.5,88.5C 104.53,86.4033 97.8636,83.7366 91.5,80.5 Z"/></g>
<g><path style="opacity:0.299" fill="#bebebe" d="M 111.5,88.5 C 112.097,88.7352 112.43,89.2352 112.5,90C 111.667,92.5 110.833,95 110,97.5C 109.34,99.3237 108.173,100.657 106.5,101.5C 108.453,97.2632 110.12,92.9298 111.5,88.5 Z"/></g>
<g><path style="opacity:0.361" fill="#bababa" d="M 52.5,104.5 C 58.7159,106.626 65.0492,108.46 71.5,110C 82.0502,112.79 92.0502,111.624 101.5,106.5C 100.657,108.173 99.3237,109.34 97.5,110C 81.7309,114.036 66.7309,112.203 52.5,104.5 Z"/></g>
<g><path style="opacity:0.213" fill="#bebebe" d="M 44.5,109.5 C 52.9792,113.325 61.6459,116.325 70.5,118.5C 60.9157,117.862 52.249,114.862 44.5,109.5 Z"/></g>
</svg>
