<?xml version="1.0" encoding="UTF-8"?>
<svg version="1.1" xmlns="http://www.w3.org/2000/svg" width="121" height="121">
<path d="M0 0 C2.11148112 4.00453317 3.96626604 7.80375233 5.34375 12.1171875 C7.3971062 18.43075375 10.19325495 24.41406085 12.94726562 30.44726562 C13.33978516 31.33478516 13.73230469 32.22230469 14.13671875 33.13671875 C14.49467529 33.92780029 14.85263184 34.71888184 15.22143555 35.53393555 C16 38 16 38 16 44 C10.06 46.64 4.12 49.28 -2 52 C0.66990893 62.6796357 3.46211587 72.14630365 12.6875 78.6875 C18.49802922 82.11798944 24.37657522 83.87260855 31 85 C31.40992187 83.86820312 31.81984375 82.73640625 32.2421875 81.5703125 C32.78616785 80.088435 33.33045463 78.60666996 33.875 77.125 C34.14441406 76.37863281 34.41382812 75.63226563 34.69140625 74.86328125 C36.7734375 69.2265625 36.7734375 69.2265625 39 67 C44.1020018 66.38746098 47.81184095 67.963898 52.3125 70.125 C58.89980132 73.15854388 65.54725939 75.72070529 72.4152832 78.04541016 C75.73240113 79.1732382 78.923509 80.31110159 82 82 C82.61047705 92.93432229 82.5840517 101.14262534 75.35546875 110.01953125 C70.75849 114.94857167 65.88283919 118.60336228 59.12280273 119.53344727 C57.72674065 119.56619912 56.33000564 119.57619695 54.93359375 119.56640625 C54.1776442 119.57260483 53.42169464 119.57880341 52.64283752 119.58518982 C51.04860714 119.59225778 49.45430248 119.58916699 47.86010742 119.57641602 C45.46713678 119.56267024 43.07818089 119.5965131 40.68554688 119.63476562 C27.34592519 119.7007306 16.78837374 116.36572182 5 110 C5 109.34 5 108.68 5 108 C4.34 107.773125 3.68 107.54625 3 107.3125 C-4.93872051 103.83930978 -10.00182735 99.16669185 -15.703125 92.62109375 C-17.72449505 90.31439425 -19.81610646 88.15073247 -22 86 C-24.38878261 83.22901218 -25.7519778 80.41461506 -27.12109375 77.03125 C-28.11152315 74.74225761 -29.26816811 72.57777812 -30.4375 70.375 C-37.72548358 55.97517746 -41.05746202 37.29660491 -37.10546875 21.40234375 C-36.19162476 19.15809792 -35.25127902 17.07243087 -34 15 C-33.34 15 -32.68 15 -32 15 C-31.773125 14.46375 -31.54625 13.9275 -31.3125 13.375 C-24.25318628 0.60100375 -13.56281315 -0.81376879 0 0 Z M-8 8 C-10.37568064 8.95860798 -12.59540585 9.97359603 -14.875 11.125 C-15.81279297 11.56972656 -15.81279297 11.56972656 -16.76953125 12.0234375 C-22.2494094 14.75758389 -25.71176553 18.2023553 -27.75 24 C-32.18089931 38.80212515 -28.09223212 56.30997387 -21.1262207 69.65869141 C-18.54383833 74.34692748 -15.68240252 78.14632295 -12 82 C-11.37738281 83.14082031 -11.37738281 83.14082031 -10.7421875 84.3046875 C-1.04055128 99.31394532 17.44633832 106.83603594 34 111 C45.27784882 112.96651566 55.18995648 113.06678447 65.03515625 106.6796875 C70.98913639 102.05302777 73.70514682 96.32480672 75 89 C73.87078125 88.58041016 73.87078125 88.58041016 72.71875 88.15234375 C65.43600482 85.40363774 58.29982794 82.44116616 51.20703125 79.23608398 C47.74047071 77.57075255 47.74047071 77.57075255 44 77 C40.535 84.92 40.535 84.92 37 93 C24.91421813 93.74603592 13.78923737 91.81577699 4.4375 83.6875 C-4.51353108 74.7216001 -9.13880398 66.71419972 -10.1875 54.0625 C-10.3102832 52.75055664 -10.3102832 52.75055664 -10.43554688 51.41210938 C-10.63401366 49.27567277 -10.81845654 47.13794116 -11 45 C-10.34773438 44.81824219 -9.69546875 44.63648438 -9.0234375 44.44921875 C-4.07269989 43.02533404 0.46546423 41.50592766 5 39 C4.09555971 32.40265464 1.63431026 26.78698269 -0.9375 20.6875 C-1.39318359 19.57826172 -1.84886719 18.46902344 -2.31835938 17.32617188 C-2.75857422 16.27365234 -3.19878906 15.22113281 -3.65234375 14.13671875 C-4.05445068 13.17467529 -4.45655762 12.21263184 -4.87084961 11.22143555 C-5.79739212 8.85351474 -5.79739212 8.85351474 -8 8 Z " fill="#BABABA" transform="translate(39,2)"/>
</svg>
