<svg width="120" height="120" version="1.1" xmlns="http://www.w3.org/2000/svg" desc="Created with imagetracer.js version 1.2.6" ><path fill="rgb(189,189,189)" stroke="rgb(189,189,189)" stroke-width="1" opacity="0.20392156862745098" d="M 59.5 2 Q 63 4.5 70.5 3 L 83.5 7 L 96.5 15 L 104 22.5 L 105 24.5 L 94.5 15 L 77.5 6 L 68.5 4 L 51.5 4 L 40.5 7 L 28.5 14 L 31.5 10 L 45.5 4 L 58.5 3 L 59.5 2 Z " /><path fill="rgb(189,189,189)" stroke="rgb(189,189,189)" stroke-width="1" opacity="0.20392156862745098" d="M 54.5 13 L 66 13.5 L 54.5 14 L 54.5 13 Z " /><path fill="rgb(189,189,189)" stroke="rgb(189,189,189)" stroke-width="1" opacity="0.20392156862745098" d="M 26.5 14 L 22.5 19 Q 20.3 18.3 21 20.5 L 15 25.5 L 24.5 15 L 26.5 14 Z " /><path fill="rgb(189,189,189)" stroke="rgb(189,189,189)" stroke-width="1" opacity="0.20392156862745098" d="M 49.5 14 L 52 14.5 L 49.5 15 L 49.5 14 Z " /><path fill="rgb(189,189,189)" stroke="rgb(189,189,189)" stroke-width="1" opacity="0.20392156862745098" d="M 69.5 14 L 72 14.5 L 69.5 15 L 69.5 14 Z " /><path fill="rgb(189,189,189)" stroke="rgb(189,189,189)" stroke-width="1" opacity="0.20392156862745098" d="M 45.5 15 L 48 15.5 Q 35 19.5 27 28.5 L 25 31.5 L 17.5 44 L 17 42.5 Q 22.1 29.6 32.5 22 L 45.5 15 Z " /><path fill="rgb(189,189,189)" stroke="rgb(189,189,189)" stroke-width="1" opacity="0.20392156862745098" d="M 73.5 15 Q 88.6 19.4 97 30.5 L 104 43.5 L 102 42.5 Q 97.6 29.9 87.5 23 L 73.5 16 L 73.5 15 Z " /><path fill="rgb(189,189,189)" stroke="rgb(189,189,189)" stroke-width="1" opacity="0.20392156862745098" d="M 105.5 26 Q 119.2 39.3 117 68.5 Q 115 79.5 110 87.5 L 104 96.5 L 96.5 104 L 94.5 104 L 80.5 113 L 70.5 116 L 50.5 116 L 34 109.5 L 35.5 109 L 43.5 113 L 52.5 115 L 68.5 115 Q 91.9 110.4 104 94.5 Q 110.7 86.7 114 75.5 L 116 65.5 L 116 53.5 L 113 40.5 L 105.5 26 Z " /><path fill="rgb(189,189,189)" stroke="rgb(189,189,189)" stroke-width="1" opacity="0.20392156862745098" d="M 14.5 27 L 13.5 29 L 14.5 27 Z " /><path fill="rgb(189,189,189)" stroke="rgb(189,189,189)" stroke-width="1" opacity="0.20392156862745098" d="M 11 30 L 13 30.5 Q 2.6 43.1 5 68.5 L 12 88.5 L 11 88.5 L 4 70.5 L 3 57.5 L 6 41.5 L 11 30 Z " /><path fill="rgb(189,189,189)" stroke="rgb(189,189,189)" stroke-width="1" opacity="0.20392156862745098" d="M 40.5 32 L 47 34.5 L 50 43.5 L 52 45.5 L 52 49.5 L 47.5 55 L 47 53.5 Q 50.6 51.6 51 46.5 L 47 36.5 L 44.5 34 Q 35.5 32.5 34 38.5 Q 31 42.5 32 50.5 Q 37.7 65.8 49.5 75 L 64.5 84 Q 69.5 87 78.5 86 Q 84.3 84.8 87 80.5 L 88.5 75 L 89 80.5 Q 84.9 89.4 69.5 87 Q 49.9 80.6 39 65.5 L 32 54.5 L 31 42.5 Q 32.5 36 37.5 33 L 40.5 32 Z " /><path fill="rgb(189,189,189)" stroke="rgb(189,189,189)" stroke-width="1" opacity="0.20392156862745098" d="M 104.5 45 L 105 47.5 L 104 47.5 L 104.5 45 Z " /><path fill="rgb(189,189,189)" stroke="rgb(189,189,189)" stroke-width="1" opacity="0.20392156862745098" d="M 15.5 48 L 16 50.5 L 15 50.5 L 15.5 48 Z " /><path fill="rgb(189,189,189)" stroke="rgb(189,189,189)" stroke-width="1" opacity="0.20392156862745098" d="M 105.5 49 L 107 55.5 L 107 63.5 L 105.5 70 L 105.5 49 Z " /><path fill="rgb(189,189,189)" stroke="rgb(189,189,189)" stroke-width="1" opacity="0.20392156862745098" d="M 14.5 53 L 15 58.5 L 14 58.5 L 14.5 53 Z " /><path fill="rgb(189,189,189)" stroke="rgb(189,189,189)" stroke-width="1" opacity="0.20392156862745098" d="M 47.5 56 L 59.5 69 L 66 72.5 L 64.5 73 Q 54.8 68.7 49 60.5 L 47.5 56 Z " /><path fill="rgb(189,189,189)" stroke="rgb(189,189,189)" stroke-width="1" opacity="0.20392156862745098" d="M 14.5 60 L 15 65.5 L 14 65.5 L 14.5 60 Z " /><path fill="rgb(189,189,189)" stroke="rgb(189,189,189)" stroke-width="1" opacity="0.20392156862745098" d="M 73.5 65 L 78.5 66 L 89 71 L 88.5 73 L 74.5 66 L 68.5 73 L 67 72.5 L 73.5 65 Z " /><path fill="rgb(189,189,189)" stroke="rgb(189,189,189)" stroke-width="1" opacity="0.20392156862745098" d="M 15.5 68 L 16 70.5 L 15 70.5 L 15.5 68 Z " /><path fill="rgb(189,189,189)" stroke="rgb(189,189,189)" stroke-width="1" opacity="0.20392156862745098" d="M 103.5 74 L 104 75.5 Q 99.2 88.2 89.5 96 Q 82.9 101.9 72.5 104 L 72.5 103 Q 84.9 99.9 92 91.5 Q 91.3 89.3 93.5 90 Q 100.3 83.8 103.5 74 Z " /><path fill="rgb(189,189,189)" stroke="rgb(189,189,189)" stroke-width="1" opacity="0.20392156862745098" d="M 17.5 75 L 23 84.5 L 23 88.5 L 19.5 99 L 19 96.5 L 22 85.5 L 17 76.5 L 17.5 75 Z " /><path fill="rgb(189,189,189)" stroke="rgb(189,189,189)" stroke-width="1" opacity="0.20392156862745098" d="M 10.5 90 L 11 92.5 Q 6.5 102.5 5 115.5 L 6.5 115 L 28.5 110 L 28.5 111 L 7.5 117 L 3 117 L 10.5 90 Z " /><path fill="rgb(189,189,189)" stroke="rgb(189,189,189)" stroke-width="1" opacity="0.20392156862745098" d="M 34.5 97 L 45 102.5 L 43.5 103 L 34.5 98 L 20.5 102 L 20.5 101 L 34.5 97 Z " /><path fill="rgb(189,189,189)" stroke="rgb(189,189,189)" stroke-width="1" opacity="0.20392156862745098" d="M 18.5 100 L 19 102.5 L 18 102.5 L 18.5 100 Z " /><path fill="rgb(189,189,189)" stroke="rgb(189,189,189)" stroke-width="1" opacity="0.20392156862745098" d="M 49.5 104 L 52 104.5 L 49.5 105 L 49.5 104 Z " /><path fill="rgb(189,189,189)" stroke="rgb(189,189,189)" stroke-width="1" opacity="0.20392156862745098" d="M 68.5 104 L 71 104.5 L 68.5 105 L 68.5 104 Z " /><path fill="rgb(189,189,189)" stroke="rgb(189,189,189)" stroke-width="1" opacity="0.20392156862745098" d="M 55.5 105 L 65 105.5 L 55.5 106 L 55.5 105 Z " /><path fill="rgb(189,189,189)" stroke="rgb(189,189,189)" stroke-width="1" opacity="0.20392156862745098" d="M 30.5 109 L 33 109.5 L 30.5 110 L 30.5 109 Z " /><path fill="rgb(0,0,0)" stroke="rgb(0,0,0)" stroke-width="1" opacity="0" d="M 0 0 L 120 0 L 120 120 L 0 120 L 0 0 Z M 60 2 L 43 5 L 32 10 L 25 15 L 15 25 L 13 29 Q 14 31 11 30 L 6 42 L 3 58 L 4 71 L 11 88 L 3 117 L 12 116 L 34 109 L 36 111 L 51 116 L 71 116 L 81 113 L 95 104 L 97 104 L 104 97 L 110 88 Q 115 80 117 69 L 117 51 L 115 43 L 111 33 L 104 23 L 97 15 L 84 7 L 71 3 Q 63 5 60 2 Z " /><path fill="rgb(0,0,0)" stroke="rgb(0,0,0)" stroke-width="1" opacity="0" d="M 52.5 14 Q 68.5 12 77.5 17 Q 89.4 22.6 97 32.5 L 105 48.5 L 105 70.5 Q 101.5 82.5 93.5 90 Q 91.3 89.3 92 91.5 Q 85.1 99.1 74.5 103 Q 66.2 106.7 52.5 105 Q 41.8 102.7 34.5 97 L 19.5 102 L 19 99.5 L 23 88.5 L 23 84.5 L 17 74.5 L 14 59.5 L 17 44.5 L 25 30 Q 27.7 31.1 27 28.5 Q 36.5 18 52.5 14 Z M 41 32 L 38 33 Q 33 36 31 43 L 32 55 L 39 66 Q 50 81 70 87 Q 80 89 85 85 L 89 81 L 89 71 L 79 66 L 74 65 L 67 73 L 60 69 L 47 56 L 52 50 L 52 46 L 50 44 L 47 35 L 41 32 Z " /><path fill="rgb(254,254,254)" stroke="rgb(254,254,254)" stroke-width="1" opacity="0.996078431372549" d="M 8 100 L 22 110 Q 23.3 113.3 18.5 112 L 5.5 116 L 5 112.5 L 8 100 Z " /><path fill="rgb(255,255,255)" stroke="rgb(255,255,255)" stroke-width="1" opacity="1" d="M 51.5 4 L 68.5 4 L 82.5 8 Q 96.4 14.1 105 25.5 L 114 43.5 L 116 53.5 L 116 65.5 L 114 75.5 L 110 85.5 Q 104.3 95.8 95.5 103 Q 87.7 109.7 76.5 113 L 68.5 115 L 52.5 115 L 43.5 113 L 35.5 109 L 30.5 109 L 22.5 111 L 9 99.5 L 12 86.5 L 8 79.5 L 5 68.5 L 5 50.5 L 10 34.5 L 21 19 L 30.5 12 L 40.5 7 L 51.5 4 Z M 55 13 L 46 15 L 33 22 Q 18 32 14 54 L 15 71 L 22 86 L 18 101 L 19 103 L 35 98 L 44 103 L 56 106 L 65 106 L 75 104 L 90 96 L 102 81 L 107 64 L 107 56 L 105 46 L 97 31 Q 89 21 78 16 L 66 13 L 55 13 Z " /><path fill="rgb(255,255,255)" stroke="rgb(255,255,255)" stroke-width="1" opacity="1" d="M 38.5 34 Q 45.5 32.5 47 36.5 L 51 48.5 L 47 53.5 L 47 57.5 L 57.5 69 L 64.5 73 L 68.5 73 L 74.5 66 L 86.5 71 L 89 73.5 Q 88.5 81 83.5 84 Q 79.1 87.1 70.5 86 Q 52.1 80.9 42 67.5 L 33 53.5 L 32 43.5 Q 33.5 37 38.5 34 Z " /></svg>