<?xml version="1.0" encoding="UTF-8"?>
<svg version="1.1" xmlns="http://www.w3.org/2000/svg" width="121" height="121">
<path d="M0 0 C0 0.66 0 1.32 0 2 C0.83724609 2.31710938 0.83724609 2.31710938 1.69140625 2.640625 C9.49691082 7.23675967 15.58339681 18.2588006 18.22265625 26.58984375 C19.493585 32.54344529 19.49937061 38.62297951 19.5625 44.6875 C19.57748535 45.82783691 19.5924707 46.96817383 19.60791016 48.14306641 C19.48465894 58.14671523 17.09067292 66.51440277 11.5 74.875 C10.9328125 75.73867187 10.365625 76.60234375 9.78125 77.4921875 C7.93776895 80.08761476 6.09659046 82.6026691 4 85 C3.34 85 2.68 85 2 85 C1.62875 85.91458984 1.62875 85.91458984 1.25 86.84765625 C-0.23140432 89.39844931 -1.40026838 90.09585279 -4 91.4375 C-4.80308594 91.85515625 -5.60617188 92.2728125 -6.43359375 92.703125 C-7.28050781 93.13109375 -8.12742187 93.5590625 -9 94 C-9.83660156 94.44859375 -10.67320313 94.8971875 -11.53515625 95.359375 C-19.97610312 99.79511215 -27.41045356 101.37191787 -36.875 101.3125 C-37.75615479 101.30976074 -38.63730957 101.30702148 -39.54516602 101.30419922 C-46.87748106 101.18614399 -52.95787663 99.9717675 -59.5625 96.75 C-66.16848224 94.71739008 -73.86586164 97.63102763 -80.25 99.5625 C-89.49913331 102.3510676 -89.49913331 102.3510676 -94 102 C-92.94511242 94.5685532 -91.0777631 87.63422449 -88.58911133 80.57226562 C-86.29273955 73.74992002 -87.9253022 70.03666745 -90.5 63.5625 C-96.29902042 47.47652162 -94.08661981 32.27254907 -87 17 C-79.22474218 2.68295302 -66.60356376 -6.04529543 -51.33203125 -11.05859375 C-33.83825498 -16.00114953 -14.16994892 -11.12765814 0 0 Z M-65 9 C-66.051875 9.7425 -67.10375 10.485 -68.1875 11.25 C-76.44016642 19.31927383 -82.22240845 31.03348845 -83.02734375 42.6328125 C-82.93900335 50.28056684 -81.46227773 56.51913084 -77.8125 63.25 C-75.00446931 68.51078742 -74.41642172 71.34280312 -76 77 C-76.36162412 78.83187694 -76.71559879 80.66527804 -77.0625 82.5 C-77.37211151 84.00059887 -77.68357535 85.500823 -78 87 C-76.91203125 86.64164062 -75.8240625 86.28328125 -74.703125 85.9140625 C-61.38010071 81.91745925 -61.38010071 81.91745925 -54.25 85.6875 C-53.34765625 86.26886719 -52.4453125 86.85023437 -51.515625 87.44921875 C-44.54286891 91.74764137 -33.62824432 91.05788442 -25.85546875 89.28125 C-13.86375063 85.12188483 -1.63416981 77.02772514 4.0390625 65.359375 C9.69352915 51.47605038 9.83454544 36.92373824 4 23 C-2.16771612 12.49146088 -13.43866276 3.07343145 -25.1875 -0.49609375 C-40.43895602 -3.22864629 -52.78841318 -0.47194386 -65 9 Z " fill="#B9B9B9" transform="translate(99,17)"/>
<path d="M0 0 C4.65547976 2.49400701 5.63973257 5.30723143 7.65234375 10.05078125 C8.50606434 12.89520514 8.81790024 14.9307547 8.5 17.875 C6.5 21.1875 6.5 21.1875 4.5 23.875 C4.99371094 24.41769531 5.48742187 24.96039063 5.99609375 25.51953125 C6.63675781 26.23496094 7.27742188 26.95039062 7.9375 27.6875 C8.57558594 28.39519531 9.21367188 29.10289063 9.87109375 29.83203125 C11.5 31.875 11.5 31.875 12.5 34.875 C14.76225382 35.94754351 14.76225382 35.94754351 17.5 36.875 C19.50751815 37.85982022 21.50934459 38.85652514 23.5 39.875 C26.02588702 37.51207344 27.38820837 36.21037489 28.5 32.875 C35.31520452 33.17131324 39.88350782 36.17964197 45.5 39.875 C45.38192841 44.80180554 45.24997195 47.95195761 42.0625 51.875 C36.67571123 56.07932294 31.12271582 55.37226876 24.5 54.875 C9.02355803 51.84040354 -2.01469818 37.66615211 -10.50708008 25.50976562 C-13.53458432 20.52521476 -13.0342973 14.48512161 -12.5 8.875 C-9.77374939 3.11958205 -6.55846782 -0.23423099 0 0 Z " fill="#B8B8B8" transform="translate(45.5,34.125)"/>
</svg>
