<?xml version="1.0" encoding="UTF-8"?>
<svg version="1.1" xmlns="http://www.w3.org/2000/svg" width="823" height="284">
<path d="M0 0 C0.99 1.98 0.99 1.98 2 4 C-2.29 9.61 -6.58 15.22 -11 21 C-15.06891456 19.37243418 -18.75724968 17.59241411 -22.625 15.5625 C-38.33413247 7.5215121 -58.23368905 4.85043875 -75.3515625 9.95703125 C-83.48283642 13.15917009 -89.49308354 17.31680559 -94.1015625 24.78515625 C-96.22669282 30.02406446 -95.80392059 36.77283304 -94.453125 42.1953125 C-91.31345021 48.8004774 -84.22272909 51.72807544 -77.7734375 54.2734375 C-68.98002702 57.22968042 -60.01276407 59.11338382 -50.9375 61 C-30.64491624 65.22700872 -8.35992369 70.64509165 3.9375 89 C7.62597921 95.56888171 9.51916123 102.51057192 10 110 C10.07927734 110.99386719 10.07927734 110.99386719 10.16015625 112.0078125 C10.7553961 126.03476895 5.8451281 139.52815773 -3.0625 150.25 C-17.64163139 165.38799809 -38.38817329 169.82773996 -58.6875 170.3125 C-83.17962596 170.16632288 -107.90678531 162.58629771 -127 147 C-126.5853677 141.6097801 -123.48058685 137.93870373 -120.4375 133.6875 C-119.65729492 132.57665039 -119.65729492 132.57665039 -118.86132812 131.44335938 C-117.58156882 129.62351816 -116.29437782 127.80945816 -115 126 C-114.11699219 126.51949219 -113.23398438 127.03898438 -112.32421875 127.57421875 C-90.80094507 140.13172353 -67.15827487 149.06571495 -42 143 C-33.4789461 140.40444875 -25.60532582 136.61295623 -20.66015625 128.9140625 C-16.86800825 121.65365103 -15.88030657 114.49406037 -17.9375 106.5 C-20.41286106 99.85319714 -25.59151841 95.88192229 -31.66015625 92.53125 C-41.8785056 87.92104562 -53.03237881 85.97480902 -63.96875 83.81640625 C-103.62282758 75.94379174 -103.62282758 75.94379174 -115.125 59.875 C-122.38823326 48.19648547 -123.62626877 36.41618425 -121.52734375 22.97265625 C-117.99545523 9.58531835 -108.71526227 -1.09466248 -97 -8 C-67.78684179 -23.24941144 -26.34040693 -20.52391329 0 0 Z " fill="#FFFFFF" transform="translate(144,33)"/>
<path d="M0 0 C8.91 0 17.82 0 27 0 C29.62944489 5.25888978 32.07485872 10.38750133 34.25 15.8203125 C34.54474213 16.54880905 34.83948425 17.2773056 35.14315796 18.02787781 C36.09874539 20.39226636 37.0495339 22.75854858 38 25.125 C38.66857291 26.78353179 39.33735816 28.441978 40.00634766 30.1003418 C41.36084817 33.46008693 42.71309901 36.82072459 44.06347656 40.18212891 C45.55237047 43.88815804 47.04582427 47.59231528 48.54188538 51.29545593 C53.98237952 64.76741957 59.31622895 78.26757023 64.32373047 91.9074707 C64.6642041 92.83132568 65.00467773 93.75518066 65.35546875 94.70703125 C65.79862427 95.92096558 65.79862427 95.92096558 66.25073242 97.15942383 C66.85467055 98.98410831 66.85467055 98.98410831 68 100 C80.14810315 66.7181686 92.18926492 33.40326611 104 0 C112.91 0 121.82 0 131 0 C130.18470853 4.89174879 129.24815867 8.26472113 127.39453125 12.75268555 C126.98787987 13.74599475 126.98787987 13.74599475 126.57301331 14.7593708 C125.97611725 16.21573671 125.3764398 17.67096498 124.77435303 19.12519264 C123.06432521 23.25695621 121.37614296 27.39767464 119.68359375 31.53662109 C119.12825958 32.89201791 119.12825958 32.89201791 118.56170654 34.27479649 C114.24278452 44.82518352 110.00410008 55.40762916 105.76428223 65.98999405 C104.36822865 69.47392956 102.97094574 72.95736945 101.57324219 76.44064331 C97.73888983 85.99639701 93.90534791 95.55247377 90.07568359 105.11010742 C87.6939093 111.05401015 85.30967729 116.996922 82.92388916 122.93921471 C82.03002986 125.16686623 81.13705681 127.39487362 80.24505615 129.62327003 C60.81029479 178.17135926 60.81029479 178.17135926 45.3125 185.3125 C34.51186202 189.85912736 22.40536693 189.17510717 11.55078125 185.16796875 C8.90069949 183.95453162 6.46588256 182.55061804 4 181 C6.13766171 173.755702 9.22684019 167.53281715 13 161 C13.70125 161.2165625 14.4025 161.433125 15.125 161.65625 C22.15732819 163.72008545 28.05100147 165.39376419 35.1875 162.875 C40.9842474 159.01050173 43.89528193 153.77387236 46.625 147.5625 C46.91117188 146.93279297 47.19734375 146.30308594 47.4921875 145.65429688 C48.06189864 144.39445837 48.62353844 143.13093652 49.17675781 141.86376953 C49.98764487 140.02797125 50.84901567 138.21474103 51.7109375 136.40234375 C53.76355829 130.98466888 53.34619879 127.02938969 51.0078125 121.80078125 C50.55978271 120.77992432 50.11175293 119.75906738 49.65014648 118.70727539 C48.89519897 117.02686157 48.89519897 117.02686157 48.125 115.3125 C47.0089867 112.77837295 45.90151647 110.24052503 44.79296875 107.703125 C44.34296257 106.67736107 44.34296257 106.67736107 43.88386536 105.63087463 C39.9550047 96.65596814 36.20640447 87.60540086 32.4375 78.5625 C30.90346709 74.88624895 29.36816548 71.21052974 27.83203125 67.53515625 C27.44254303 66.60322952 27.05305481 65.6713028 26.65176392 64.71113586 C23.70717381 57.67313956 20.73899154 50.64531961 17.76171875 43.62109375 C17.33038132 42.60277969 16.89904388 41.58446564 16.45463562 40.53529358 C14.37088158 35.61654916 12.28428463 30.69904357 10.19311523 25.78344727 C9.43331449 23.99109756 8.67362465 22.19870083 7.9140625 20.40625 C7.57626266 19.61524399 7.23846283 18.82423798 6.89042664 18.00926208 C4.37328094 12.05767743 2.21701548 6.09679258 0 0 Z " fill="#FFFFFF" transform="translate(633,72)"/>
<path d="M0 0 C11.96621023 9.89206712 16.944519 24.18051622 18.59375 39.25 C18.92406972 45.46763666 18.82790378 51.6980762 18.7890625 57.921875 C18.78532421 59.69834228 18.7824811 61.47481164 18.78048706 63.25128174 C18.77291482 67.88722604 18.75332274 72.52304153 18.7310791 77.15893555 C18.71048123 81.90541848 18.70145577 86.65192259 18.69140625 91.3984375 C18.67006967 100.68235687 18.63494115 109.96614748 18.59375 119.25 C10.34375 119.25 2.09375 119.25 -6.40625 119.25 C-6.4155957 116.95522705 -6.42494141 114.6604541 -6.43457031 112.29614258 C-6.46851285 104.66851763 -6.52415633 97.04115832 -6.59015274 89.41374683 C-6.62946788 84.79445397 -6.66173393 80.17534719 -6.67724609 75.5559082 C-6.69251877 71.08822512 -6.72714911 66.62105417 -6.77455902 62.15360069 C-6.78926438 60.45903695 -6.7972847 58.76440005 -6.79813385 57.06977272 C-6.81033878 44.91293944 -7.18512186 31.7434312 -15.46875 21.96875 C-23.48759333 14.85525995 -32.91242994 12.76274448 -43.40625 13.25 C-53.11212263 14.41087502 -61.9660758 18.26596535 -68.54296875 25.6484375 C-75.13858173 34.63617007 -77.47531341 43.44516373 -77.61157227 54.54052734 C-77.62642166 55.5952272 -77.62642166 55.5952272 -77.64157104 56.67123413 C-77.67294873 58.97610198 -77.69784869 61.28099038 -77.72265625 63.5859375 C-77.74324632 65.19162506 -77.76424331 66.79730746 -77.78562927 68.40298462 C-77.840638 72.61476435 -77.89014013 76.82659127 -77.93847656 81.03845215 C-77.98884706 85.34208338 -78.04445171 89.64564668 -78.09960938 93.94921875 C-78.2069314 102.38275644 -78.30794911 110.81635233 -78.40625 119.25 C-86.65625 119.25 -94.90625 119.25 -103.40625 119.25 C-103.40625 77.34 -103.40625 35.43 -103.40625 -7.75 C-95.48625 -7.75 -87.56625 -7.75 -79.40625 -7.75 C-79.40625 -1.15 -79.40625 5.45 -79.40625 12.25 C-78.436875 10.909375 -77.4675 9.56875 -76.46875 8.1875 C-59.05798535 -13.94954009 -22.33891858 -16.24648624 0 0 Z " fill="#FFFFFF" transform="translate(441.40625,79.75)"/>
<path d="M0 0 C12.23467892 10.03922267 17.50641869 23.51539956 19.39453125 38.96484375 C19.86010278 45.35008518 19.74717063 51.75116234 19.6875 58.1484375 C19.68188864 59.94303529 19.67762585 61.73763775 19.67463684 63.53224182 C19.66330904 68.20274058 19.63394933 72.87294907 19.6005249 77.54333496 C19.56956028 82.33028235 19.55607573 87.11727771 19.54101562 91.90429688 C19.50906507 101.25795904 19.4563994 110.61133159 19.39453125 119.96484375 C11.14453125 119.96484375 2.89453125 119.96484375 -5.60546875 119.96484375 C-5.61481445 117.6700708 -5.62416016 115.37529785 -5.63378906 113.01098633 C-5.6677316 105.38336138 -5.72337508 97.75600207 -5.78937149 90.12859058 C-5.82868663 85.50929772 -5.86095268 80.89019094 -5.87646484 76.27075195 C-5.89173752 71.80306887 -5.92636786 67.33589792 -5.97377777 62.86844444 C-5.98848313 61.1738807 -5.99650345 59.4792438 -5.9973526 57.78461647 C-6.00955753 45.62778319 -6.38434061 32.45827495 -14.66796875 22.68359375 C-22.68153166 15.57478794 -32.11597503 13.46703727 -42.60546875 13.96484375 C-50.05367843 14.91720832 -55.75935474 17.1638422 -61.765625 21.66015625 C-63.60546875 22.96484375 -63.60546875 22.96484375 -66.60546875 23.96484375 C-67.61462908 25.73076262 -67.61462908 25.73076262 -68.60546875 27.96484375 C-69.24484375 28.85171875 -69.88421875 29.73859375 -70.54296875 30.65234375 C-75.43205268 38.50450885 -76.69693198 47.0223204 -76.81079102 56.16357422 C-76.82564041 57.20364372 -76.82564041 57.20364372 -76.84078979 58.26472473 C-76.87216201 60.53712652 -76.89706522 62.80954916 -76.921875 65.08203125 C-76.94246555 66.66529863 -76.96346255 68.24856078 -76.98484802 69.83181763 C-77.03985184 73.98441304 -77.0893561 78.13705626 -77.13769531 82.28973389 C-77.18806943 86.53304259 -77.24367217 90.77628248 -77.29882812 95.01953125 C-77.40614413 103.33457862 -77.50716363 111.64968496 -77.60546875 119.96484375 C-85.52546875 119.96484375 -93.44546875 119.96484375 -101.60546875 119.96484375 C-101.60546875 78.05484375 -101.60546875 36.14484375 -101.60546875 -7.03515625 C-94.01546875 -7.03515625 -86.42546875 -7.03515625 -78.60546875 -7.03515625 C-78.60546875 -0.43515625 -78.60546875 6.16484375 -78.60546875 12.96484375 C-77.63609375 11.62421875 -76.66671875 10.28359375 -75.66796875 8.90234375 C-58.65590275 -12.72776811 -22.22293719 -15.75929429 0 0 Z " fill="#FFFFFF" transform="translate(598.60546875,79.03515625)"/>
<path d="M0 0 C7.92 0 15.84 0 24 0 C24.01458252 2.13807129 24.02916504 4.27614258 24.04418945 6.47900391 C24.09484881 13.59570402 24.16149592 20.71219248 24.23571491 27.82868385 C24.28017199 32.13739729 24.31948009 36.44602152 24.34643555 40.75488281 C24.37271762 44.92425463 24.41328909 49.09327844 24.46318626 53.2624321 C24.47968864 54.84173582 24.49130519 56.4210995 24.49761391 58.00047684 C24.55694868 71.50725512 24.84020174 86.16389879 34 97 C42.07290923 104.1607161 51.09092048 106.64125048 61.7265625 106.34375 C70.84045989 105.38668202 78.57397206 101.51371253 85 95 C94.27644832 83.47040997 94.45466974 69.10683107 94.51171875 54.98046875 C94.52860792 53.38477741 94.54676368 51.78909903 94.56611633 50.19343567 C94.61316327 46.03929702 94.64326317 41.8852109 94.66955566 37.730896 C94.69959282 33.47348658 94.74604211 29.21625757 94.79101562 24.95898438 C94.8765318 16.63939773 94.9425825 8.31982805 95 0 C102.92 0 110.84 0 119 0 C119 41.91 119 83.82 119 127 C111.74 127 104.48 127 97 127 C96.505 118.09 96.505 118.09 96 109 C94.700625 110.52625 93.40125 112.0525 92.0625 113.625 C83.02604325 123.57493994 72.98204213 128.65335982 59.5078125 129.3828125 C42.62718343 129.89464094 28.86168051 127.61651431 15.78515625 116.0390625 C1.56950256 101.3595583 -0.46784747 83.07998375 -0.29296875 63.671875 C-0.28736192 61.82814888 -0.28309697 59.98441825 -0.28010559 58.14068604 C-0.26874234 53.32712094 -0.23935017 48.51383463 -0.20599365 43.70037842 C-0.17510738 38.77294687 -0.16156089 33.84546954 -0.14648438 28.91796875 C-0.11447088 19.27850469 -0.06177426 9.63931932 0 0 Z " fill="#FFFFFF" transform="translate(180,72)"/>
<path d="M0 0 C3.49418231 2.9950134 5.37016506 5.544213 6.05859375 10.15234375 C6.06650672 16.30071801 6.0715054 20.56314296 1.625 25.25 C-4.00108128 29.30077852 -9.67156748 29.28066306 -16.375 28.25 C-20.75010124 25.98550036 -23.53396226 22.80593211 -25.375 18.25 C-26.07858198 13.36583208 -26.01351284 8.73851634 -23.6875 4.3125 C-17.67383247 -3.65154619 -8.56293022 -4.44003789 0 0 Z " fill="#FFFFFF" transform="translate(799.375,172.75)"/>
</svg>
